<?xml version="1.0" standalone="no"?>
<!DOCTYPE svg PUBLIC "-//W3C//DTD SVG 20010904//EN"
 "http://www.w3.org/TR/2001/REC-SVG-20010904/DTD/svg10.dtd">
<svg version="1.0" xmlns="http://www.w3.org/2000/svg"
 width="976.000000pt" height="1280.000000pt" viewBox="0 0 976.000000 1280.000000"
 preserveAspectRatio="xMidYMid meet">
<g transform="translate(0.000000,1280.000000) scale(0.100000,-0.100000)"
fill="#000000" stroke="none">
<path d="M4995 12533 c-47 -148 -95 -296 -107 -331 -11 -35 -26 -66 -33 -68
-6 -3 -166 54 -355 125 -189 72 -346 128 -348 126 -3 -3 88 -145 202 -316 113
-171 204 -315 201 -320 -4 -5 -147 -93 -318 -195 -330 -196 -323 -192 -316
-198 2 -2 168 -18 369 -36 201 -17 369 -35 373 -39 7 -7 -42 -396 -85 -669 -6
-40 -9 -75 -6 -78 3 -2 121 117 262 266 142 148 261 270 266 270 5 0 124 -122
266 -270 141 -149 259 -269 261 -267 2 3 -19 170 -47 372 -28 202 -48 371 -43
376 4 4 172 22 373 39 201 18 367 34 369 36 7 6 14 2 -316 198 -171 102 -314
190 -317 195 -4 5 87 149 200 321 114 171 204 313 202 315 -2 3 -159 -54 -348
-126 -189 -71 -349 -128 -355 -125 -7 2 -24 40 -38 83 -14 43 -62 192 -107
331 -68 212 -84 252 -100 252 -16 0 -32 -42 -105 -267z"/>
<path d="M8501 9258 c-63 -194 -117 -357 -121 -361 -4 -5 -164 51 -355 123
-191 72 -349 129 -352 126 -3 -3 85 -142 196 -309 110 -167 201 -310 201 -318
0 -8 -133 -93 -319 -204 -176 -104 -318 -192 -315 -194 3 -3 170 -20 371 -37
201 -18 369 -36 373 -41 5 -4 -14 -168 -41 -363 -27 -195 -48 -363 -47 -372 2
-11 92 77 258 253 140 148 261 269 270 268 8 0 129 -122 269 -270 140 -148
256 -268 257 -266 2 1 -5 63 -16 137 -10 74 -32 240 -50 369 -22 161 -29 236
-21 244 8 8 582 65 674 67 21 0 27 5 26 23 0 18 -50 51 -296 197 -163 96 -298
180 -300 185 -1 6 89 150 202 320 112 171 201 311 196 313 -4 1 -162 -56 -351
-128 -289 -110 -346 -129 -355 -117 -6 8 -59 167 -119 353 -59 187 -111 342
-115 347 -4 4 -58 -151 -120 -345z"/>
<path d="M1131 8529 c-4 -13 -45 -139 -90 -279 -139 -431 -131 -410 -150 -410
-9 0 -170 58 -357 129 -186 71 -341 127 -343 125 -2 -2 89 -144 203 -315 114
-171 205 -316 203 -323 -3 -6 -138 -90 -301 -186 -234 -138 -296 -179 -296
-195 0 -20 14 -22 345 -49 189 -16 350 -33 356 -37 13 -8 14 -1 -57 -508 -19
-134 -33 -245 -31 -247 1 -2 117 118 257 266 140 148 260 272 267 274 6 3 128
-117 270 -266 142 -150 259 -265 261 -257 1 8 -20 174 -47 369 -38 272 -47
358 -38 366 7 7 151 23 342 39 182 15 348 30 369 34 40 6 40 6 -280 196 -185
111 -320 197 -322 207 -2 9 87 152 198 318 111 166 199 305 196 308 -4 3 -122
-38 -264 -92 -392 -149 -430 -162 -441 -151 -5 6 -60 165 -121 355 -61 189
-113 346 -115 349 -3 2 -9 -7 -14 -20z"/>
<path d="M6586 6190 c-48 -121 -95 -225 -102 -231 -13 -11 -99 -19 -359 -35
-60 -4 -116 -10 -123 -14 -9 -4 47 -57 166 -158 98 -83 184 -157 190 -164 7
-9 -6 -79 -48 -253 -32 -132 -57 -241 -56 -243 2 -2 99 56 215 128 l212 132
69 -41 c38 -23 133 -81 212 -131 90 -56 144 -85 146 -77 1 7 -22 114 -53 236
-30 123 -55 229 -55 235 0 7 86 84 190 171 166 140 187 161 168 167 -13 3
-111 12 -218 18 -107 7 -211 15 -230 19 l-35 7 -92 224 c-50 124 -95 226 -100
227 -4 1 -48 -96 -97 -217z"/>
<path d="M5090 2265 c0 -15 -222 -691 -229 -698 -6 -6 -149 44 -356 122 -191
73 -349 130 -352 128 -2 -3 89 -145 202 -316 113 -172 203 -316 200 -321 -2
-4 -147 -92 -320 -195 -173 -103 -315 -190 -315 -194 0 -4 165 -21 367 -39
202 -17 371 -36 375 -40 6 -6 -3 -99 -21 -223 -17 -118 -37 -268 -46 -334 -9
-66 -18 -128 -21 -138 -5 -15 -1 -18 20 -15 18 2 90 71 258 248 128 135 239
245 248 245 8 0 120 -110 248 -245 154 -162 241 -246 256 -248 20 -3 23 1 20
20 -28 163 -93 683 -86 690 5 5 173 23 375 40 202 18 367 35 367 39 0 4 -142
91 -315 194 -173 103 -318 191 -321 196 -2 5 88 149 201 320 113 171 204 313
202 316 -3 2 -161 -55 -352 -128 -210 -80 -350 -128 -356 -122 -7 7 -229 682
-229 698 0 3 -4 5 -10 5 -5 0 -10 -2 -10 -5z"/>
</g>
</svg>
