<svg xmlns:mydata="http://www.w3.org/2000/svg" mydata:contrastcolor="F1C400" mydata:template="Contrast" mydata:presentation="2.5" mydata:layouttype="undefined" mydata:specialfontid="undefined" mydata:id1="119" mydata:id2="119" mydata:companyname="Big Bast" mydata:companytagline="" version="1.1" xmlns="http://www.w3.org/2000/svg" xmlns:xlink="http://www.w3.org/1999/xlink" viewBox="0 0 550 470"><g fill="#000000" fill-rule="nonzero" stroke="none" stroke-width="1" stroke-linecap="butt" stroke-linejoin="miter" stroke-miterlimit="10" stroke-dasharray="" stroke-dashoffset="0" font-family="none" font-weight="none" font-size="none" text-anchor="none" style="mix-blend-mode: normal"><g data-paper-data="{&quot;isGlobalGroup&quot;:true}"><g data-paper-data="{&quot;stacked&quot;:true,&quot;isPrimaryText&quot;:true}"><path d="M243.07543,248.99307c1.27242,0 2.4388,0.20391 3.49914,0.61174c1.06035,0.40783 1.97387,0.97878 2.74059,1.71287c0.76671,0.73409 1.35398,1.6313 1.76181,2.69165c0.40783,1.06035 0.61174,2.22673 0.61174,3.49914c0,1.07666 -0.12235,2.01466 -0.36704,2.814c-0.2447,0.79934 -0.5628,1.49264 -0.95431,2.07991c-0.39151,0.58727 -0.85643,1.09297 -1.39476,1.51711c-0.53833,0.42414 -1.10113,0.79934 -1.6884,1.1256c0.71777,0.1305 1.49264,0.41598 2.3246,0.85643c0.83196,0.44045 1.60683,1.01956 2.3246,1.73734c0.71777,0.71777 1.3132,1.57421 1.78628,2.5693c0.47308,0.99509 0.70962,2.11254 0.70962,3.35232c0,3.1321 -0.97062,5.46486 -2.91187,6.99828c-1.94125,1.53342 -4.54318,2.30014 -7.80578,2.30014h-12.82203v-33.86582zM233.97276,279.87361h10.2772c2.08807,0 3.80093,-0.53017 5.1386,-1.59052c1.33767,-1.06035 2.0065,-2.61824 2.0065,-4.67368c0,-1.01141 -0.22838,-1.93309 -0.68515,-2.76506c-0.45676,-0.83196 -1.05219,-1.53342 -1.78628,-2.10438c-0.73409,-0.57096 -1.56605,-1.01141 -2.49589,-1.32135c-0.92984,-0.30995 -1.85153,-0.46492 -2.76506,-0.46492h-9.68993zM243.07543,264.0663c0.71777,0 1.41923,-0.17944 2.10438,-0.53833c0.68515,-0.35889 1.28057,-0.82381 1.78628,-1.39476c0.5057,-0.57096 0.91353,-1.22348 1.22348,-1.95756c0.30995,-0.73409 0.46492,-1.47633 0.46492,-2.22673c0,-1.69655 -0.51386,-3.09947 -1.54158,-4.20876c-1.02772,-1.10929 -2.37354,-1.66393 -4.03747,-1.66393h-9.10266v11.99007z" data-paper-data="{&quot;glyphName&quot;:&quot;B&quot;,&quot;glyphIndex&quot;:0,&quot;firstGlyphOfWord&quot;:true,&quot;word&quot;:1,&quot;line&quot;:1,&quot;firstGlyphOfFirstLine&quot;:true}"></path><path d="M271.18275,248.99307h3.08316v33.86582h-3.08316z" data-paper-data="{&quot;glyphName&quot;:&quot;I&quot;,&quot;glyphIndex&quot;:1,&quot;word&quot;:1,&quot;line&quot;:1}"></path><path d="M307.16927,266.9537h11.94113v3.76831c0,1.69655 -0.27732,3.3197 -0.83196,4.86944c-0.55464,1.54974 -1.37029,2.92003 -2.44695,4.11088c-1.07666,1.19085 -2.41433,2.13701 -4.013,2.83846c-1.59868,0.70146 -3.44205,1.05219 -5.53011,1.05219c-2.05544,0 -3.97222,-0.3752 -5.75034,-1.1256c-1.77812,-0.7504 -3.31154,-1.85968 -4.60027,-3.32786c-1.28873,-1.46817 -2.30014,-3.30339 -3.03422,-5.50564c-0.73409,-2.20226 -1.10113,-4.75524 -1.10113,-7.65896c0,-2.90372 0.36704,-5.4567 1.10113,-7.65896c0.73409,-2.20226 1.74549,-4.05378 3.03422,-5.55458c1.28873,-1.5008 2.82215,-2.6264 4.60027,-3.37679c1.77812,-0.7504 3.71121,-1.1256 5.79928,-1.1256c2.28382,0 4.36373,0.44861 6.23973,1.34582c1.876,0.89722 3.4502,2.3246 4.72262,4.28217l-2.39801,1.56605c-1.07666,-1.37029 -2.34092,-2.38986 -3.79278,-3.05869c-1.45186,-0.66883 -3.05869,-1.00325 -4.8205,-1.00325c-1.72918,0 -3.28707,0.30179 -4.67368,0.90537c-1.38661,0.60358 -2.57746,1.51711 -3.57255,2.74059c-0.99509,1.22348 -1.76181,2.74874 -2.30014,4.5758c-0.53833,1.82706 -0.80749,3.94775 -0.80749,6.36208c0,4.79603 1.03588,8.42567 3.10763,10.88894c2.07175,2.46327 4.8205,3.6949 8.24623,3.6949c1.43555,0 2.74874,-0.2447 3.93959,-0.73409c1.19085,-0.48939 2.21041,-1.15822 3.05869,-2.0065c0.84828,-0.84828 1.50895,-1.85153 1.98203,-3.00975c0.47308,-1.15822 0.70962,-2.40617 0.70962,-3.74384v-1.1256h-8.80903z" data-paper-data="{&quot;glyphName&quot;:&quot;G&quot;,&quot;glyphIndex&quot;:2,&quot;lastGlyphOfWord&quot;:true,&quot;word&quot;:1,&quot;line&quot;:1,&quot;lastGlyphOfFirstLine&quot;:true}"></path><path d="M216.90935,298.30436c1.27242,0 2.4388,0.20391 3.49914,0.61174c1.06035,0.40783 1.97387,0.97878 2.74059,1.71287c0.76671,0.73409 1.35398,1.6313 1.76181,2.69165c0.40783,1.06035 0.61174,2.22673 0.61174,3.49914c0,1.07666 -0.12235,2.01466 -0.36704,2.814c-0.2447,0.79934 -0.5628,1.49264 -0.95431,2.07991c-0.39151,0.58727 -0.85643,1.09297 -1.39476,1.51711c-0.53833,0.42414 -1.10113,0.79934 -1.6884,1.1256c0.71777,0.1305 1.49264,0.41598 2.3246,0.85643c0.83196,0.44045 1.60683,1.01956 2.3246,1.73734c0.71777,0.71777 1.3132,1.57421 1.78628,2.5693c0.47308,0.99509 0.70962,2.11254 0.70962,3.35232c0,3.1321 -0.97062,5.46486 -2.91187,6.99828c-1.94125,1.53342 -4.54318,2.30014 -7.80578,2.30014h-12.82203v-33.86582zM207.80669,329.1849h10.2772c2.08807,0 3.80093,-0.53017 5.1386,-1.59052c1.33767,-1.06035 2.0065,-2.61824 2.0065,-4.67368c0,-1.01141 -0.22838,-1.93309 -0.68515,-2.76506c-0.45676,-0.83196 -1.05219,-1.53342 -1.78628,-2.10438c-0.73409,-0.57096 -1.56605,-1.01141 -2.49589,-1.32135c-0.92984,-0.30995 -1.85153,-0.46492 -2.76506,-0.46492h-9.68993zM216.90935,313.37758c0.71777,0 1.41923,-0.17944 2.10438,-0.53833c0.68515,-0.35889 1.28057,-0.82381 1.78628,-1.39476c0.5057,-0.57096 0.91353,-1.22348 1.22348,-1.95756c0.30995,-0.73409 0.46492,-1.47633 0.46492,-2.22673c0,-1.69655 -0.51386,-3.09947 -1.54158,-4.20876c-1.02772,-1.10929 -2.37354,-1.66393 -4.03747,-1.66393h-9.10266v11.99007z" data-paper-data="{&quot;glyphName&quot;:&quot;B&quot;,&quot;glyphIndex&quot;:3,&quot;firstGlyphOfWord&quot;:true,&quot;word&quot;:2,&quot;line&quot;:2,&quot;firstGlyphOfSecondLine&quot;:true}"></path><path d="M254.21722,298.30436h2.98528l12.13688,33.86582h-3.62149l-2.39801,-6.99828h-15.36686l-2.34907,6.99828h-3.52361zM248.88286,322.23555h13.50718l-6.75359,-19.72244z" data-paper-data="{&quot;glyphName&quot;:&quot;A&quot;,&quot;glyphIndex&quot;:4,&quot;word&quot;:2,&quot;line&quot;:2}"></path><path d="M295.09764,297.96178c2.15332,0 4.13535,0.36704 5.94609,1.10113c1.81074,0.73409 3.25445,1.72102 4.33111,2.96081l-2.30014,2.05544c-0.94615,-1.04403 -2.08807,-1.8189 -3.42573,-2.3246c-1.33767,-0.5057 -2.78953,-0.75856 -4.35558,-0.75856c-0.97878,0 -1.94125,0.09788 -2.8874,0.29363c-0.94615,0.19576 -1.77812,0.48939 -2.49589,0.8809c-0.71777,0.39151 -1.29688,0.89722 -1.73734,1.51711c-0.44045,0.61989 -0.66068,1.37029 -0.66068,2.2512c0,0.97878 0.27732,1.81074 0.83196,2.49589c0.55464,0.68515 1.27242,1.28873 2.15332,1.81074c0.8809,0.52202 1.88415,0.97878 3.00975,1.37029c1.1256,0.39151 2.27567,0.78302 3.4502,1.17454c1.17454,0.39151 2.30829,0.79934 3.40126,1.22348c1.09297,0.42414 2.0636,0.91353 2.91187,1.46817c1.27242,0.84828 2.31645,1.876 3.1321,3.08316c0.81565,1.20716 1.22348,2.78953 1.22348,4.74709c0,1.76181 -0.3752,3.23813 -1.1256,4.42898c-0.7504,1.19085 -1.72918,2.14516 -2.93634,2.86293c-1.20716,0.71777 -2.54483,1.22348 -4.013,1.51711c-1.46817,0.29363 -2.92003,0.44045 -4.35558,0.44045c-1.20716,0 -2.43064,-0.08157 -3.67043,-0.2447c-1.23979,-0.16313 -2.43064,-0.41598 -3.57255,-0.75856c-1.14191,-0.34257 -2.21857,-0.79934 -3.22998,-1.37029c-1.01141,-0.57096 -1.89231,-1.26426 -2.64271,-2.07991l2.10438,-2.20226c1.20716,1.23979 2.78137,2.16963 4.72262,2.78953c1.94125,0.61989 3.93959,0.92984 5.99503,0.92984c3.06685,0 5.44039,-0.57096 7.12063,-1.71287c1.68024,-1.14191 2.52036,-2.69165 2.52036,-4.64921c0,-1.17454 -0.3181,-2.1941 -0.95431,-3.05869c-0.63621,-0.86459 -1.42739,-1.62315 -2.37354,-2.27567c-1.01141,-0.71777 -2.03913,-1.26426 -3.08316,-1.63946c-1.04403,-0.3752 -2.09622,-0.70962 -3.15657,-1.00325c-1.06035,-0.29363 -2.13701,-0.63621 -3.22998,-1.02772c-1.09297,-0.39151 -2.1941,-0.96247 -3.30339,-1.71287c-1.10929,-0.7504 -2.02281,-1.64761 -2.74059,-2.69165c-0.71777,-1.04403 -1.07666,-2.34907 -1.07666,-3.91512c0,-1.20716 0.25285,-2.30829 0.75856,-3.30339c0.5057,-0.99509 1.21532,-1.83521 2.12885,-2.52036c0.91353,-0.68515 2.01466,-1.21532 3.30339,-1.59052c1.28873,-0.3752 2.71612,-0.5628 4.28217,-0.5628z" data-paper-data="{&quot;glyphName&quot;:&quot;S&quot;,&quot;glyphIndex&quot;:5,&quot;word&quot;:2,&quot;line&quot;:2}"></path><path d="M335.09715,332.17018h-3.08316v-30.73372h-10.32614v-3.1321h23.58862v3.1321h-10.17932z" data-paper-data="{&quot;glyphName&quot;:&quot;T&quot;,&quot;glyphIndex&quot;:6,&quot;lastGlyphOfWord&quot;:true,&quot;word&quot;:2,&quot;line&quot;:2,&quot;lastGlyphOfSecondLine&quot;:true}"></path></g><g data-paper-data="{&quot;fillRule&quot;:&quot;nonzero&quot;,&quot;initialText&quot;:&quot;B&quot;,&quot;selectedEffects&quot;:{&quot;container&quot;:&quot;&quot;,&quot;transformation&quot;:&quot;&quot;,&quot;pattern&quot;:&quot;&quot;},&quot;bounds&quot;:{&quot;x&quot;:226.16476037775843,&quot;y&quot;:117.2511480364945,&quot;width&quot;:97.67047924448323,&quot;height&quot;:114.46597165923868},&quot;isIcon&quot;:&quot;true&quot;,&quot;iconType&quot;:&quot;initial&quot;,&quot;iconStyle&quot;:&quot;standalone&quot;,&quot;rawInitialId&quot;:&quot;336&quot;,&quot;line&quot;:&quot;1&quot;,&quot;iconInPrimaryText&quot;:&quot;true&quot;}"><path d="M284.84345,220.748c19.45255,0 35.27239,-15.81984 35.27239,-35.1552c0,-14.648 -9.02317,-27.65543 -22.49933,-32.92871l0.11718,0.11718c0.11718,-0.35155 0.11718,-0.82029 0.11718,-1.17184c0,-12.30432 -4.10144,-21.91341 -12.30432,-28.35853c-18.51507,-14.17927 -50.62349,-5.8592 -51.91252,-5.50765v0.11718h0.11718v-0.11718c-2.2265,0.46874 -3.86707,2.69523 -3.86707,4.80454v85.89588c0,2.81242 2.34368,4.92173 5.03891,4.92173c2.69523,0 4.92173,-2.2265 4.92173,-4.92173v-82.02881l-0.11718,0.11718c8.32007,-1.52339 28.35853,-4.10144 39.72538,4.68736c5.62483,4.33581 8.43725,11.0153 8.43725,20.39002v0.58592l1.52339,-1.28903v-0.23437c-1.52339,-0.23437 -3.04678,-0.35155 -4.57017,-0.35155c-19.45255,0 -35.1552,15.81984 -35.1552,35.27239c0,19.33536 15.81984,35.1552 35.1552,35.1552zM284.84345,210.78735c-13.9449,0 -25.19456,-11.24967 -25.19456,-25.19456c0,-13.9449 11.24967,-25.31175 25.19456,-25.31175c13.9449,0 25.31175,11.36685 25.31175,25.31175c0,13.9449 -11.36685,25.19456 -25.31175,25.19456z" data-paper-data="{&quot;isPathIcon&quot;:true}"></path></g><path d="M186.97304,349.60941v-177.11634c0,-1.48861 0.52628,-2.75889 1.57884,-3.81083c1.05194,-1.05256 2.32222,-1.57884 3.81083,-1.57884l33.28126,0v1.54096h-33.28126c-1.06241,0 -1.96962,0.376 -2.72163,1.12801c-0.75139,0.75139 -1.12708,1.65829 -1.12708,2.7207v177.11634c0,1.06303 0.37569,1.97024 1.12708,2.72163c0.752,0.75139 1.65921,1.12708 2.72163,1.12708h165.27459c1.06241,0 1.96962,-0.37569 2.72163,-1.12708c0.75139,-0.75139 1.12708,-1.6586 1.12708,-2.72163v-177.11634c0,-1.06241 -0.37569,-1.96931 -1.12708,-2.7207c-0.752,-0.752 -1.65921,-1.12801 -2.72163,-1.12801l-37.10553,0l-0.76829,-1.54096h37.87381c1.48861,0 2.75889,0.52628 3.81083,1.57884c1.05256,1.05194 1.57884,2.32222 1.57884,3.81083v177.11634c0,1.48861 -0.52628,2.7592 -1.57884,3.81175c-1.05194,1.05256 -2.32222,1.57884 -3.81083,1.57884h-165.27459c-1.48861,0 -2.75889,-0.52628 -3.81083,-1.57884c-1.05256,-1.05256 -1.57884,-2.32314 -1.57884,-3.81175z" data-paper-data="{&quot;isLogoContainer&quot;:true}"></path></g></g></svg>