<svg xmlns:mydata="http://www.w3.org/2000/svg" mydata:contrastcolor="F1C400" mydata:template="Contrast" mydata:presentation="2.5" mydata:layouttype="undefined" mydata:specialfontid="undefined" mydata:id1="119" mydata:id2="119" mydata:companyname="Big Bast" mydata:companytagline="" version="1.1" xmlns="http://www.w3.org/2000/svg" xmlns:xlink="http://www.w3.org/1999/xlink" viewBox="0 0 550 470"><g fill="#000000" fill-rule="evenodd" stroke="none" stroke-width="1" stroke-linecap="butt" stroke-linejoin="miter" stroke-miterlimit="10" stroke-dasharray="" stroke-dashoffset="0" font-family="none" font-weight="none" font-size="none" text-anchor="none" style="mix-blend-mode: normal"><g data-paper-data="{&quot;isGlobalGroup&quot;:true}"><g data-paper-data="{&quot;isContainerElementsWrapper&quot;:true}"><path d="M183.78337,143.78337c-11.90126,11.90078 -21.11586,25.56837 -27.64381,41.00278c-6.7597,15.98099 -10.13955,32.7189 -10.13955,50.21375c0,17.49485 3.37985,34.23276 10.13955,50.21375c6.52747,15.43392 15.74207,29.10152 27.64381,41.00278c11.90078,11.90126 25.56837,21.11586 41.00278,27.64381c15.9805,6.75985 32.71842,10.13977 50.21375,10.13977c17.49533,0 34.23325,-3.37992 50.21375,-10.13977c15.43344,-6.52747 29.10103,-15.74207 41.00278,-27.64381c11.90078,-11.90078 21.11538,-25.56837 27.64381,-41.00278c6.75985,-15.9805 10.13977,-32.71842 10.13977,-50.21375c0,-17.49388 -3.37992,-34.2318 -10.13977,-50.21375c-6.52747,-15.43344 -15.74207,-29.10103 -27.64381,-41.00278c-11.90078,-11.90107 -25.56837,-21.11574 -41.00278,-27.64403c-15.98099,-6.75956 -32.7189,-10.13933 -50.21375,-10.13933c-17.49436,0 -34.23228,3.37978 -50.21375,10.13933c-15.43392,6.52795 -29.10152,15.74263 -41.00278,27.64403zM147.99099,234.99989c0,-17.22567 3.32715,-33.70507 9.98146,-49.43818c6.42725,-15.19525 15.50001,-28.65225 27.21827,-40.37099c11.71826,-11.71797 25.17526,-20.7906 40.37099,-27.2179c15.7336,-6.65469 32.21299,-9.98204 49.43818,-9.98204c17.22567,0 33.70507,3.32735 49.43818,9.98204c15.19573,6.42701 28.65273,15.49964 40.37099,27.2179c11.71778,11.71826 20.79053,25.17526 27.21827,40.37099c6.65431,15.73263 9.98146,32.21202 9.98146,49.43818c0,17.22616 -3.32715,33.70555 -9.98146,49.43818c-6.42677,15.19525 -15.49952,28.65225 -27.21827,40.37099c-11.71778,11.71778 -25.17477,20.79053 -40.37099,27.21827c-15.73263,6.65431 -32.21202,9.98146 -49.43818,9.98146c-17.2247,0 -33.7041,-3.32715 -49.43818,-9.98146c-15.19525,-6.42725 -28.65225,-15.50001 -40.37099,-27.21827c-11.71778,-11.71778 -20.79053,-25.17477 -27.21827,-40.37099c-6.65431,-15.73311 -9.98146,-32.21251 -9.98146,-49.43818z" data-paper-data="{&quot;isOuterDoubleOutline&quot;:true}"></path><path d="M274.99989,110.57869c-68.71558,0 -124.42149,55.70562 -124.42149,124.4212c0,68.71558 55.70591,124.42149 124.42149,124.42149c68.71558,0 124.42149,-55.70591 124.42149,-124.42149c0,-68.71558 -55.70591,-124.4212 -124.42149,-124.4212zM282.55443,229.1715c14.92898,0 27.07013,-12.14114 27.07013,-26.9808c0,-11.20363 -6.87773,-21.15677 -17.16201,-25.22996c0.0748,-0.26361 0.0748,-0.59693 0.0748,-0.85109c0,-9.44335 -3.14803,-16.8178 -9.44335,-21.76387c-14.20933,-10.88266 -38.85181,-4.49728 -39.84087,-4.22714v0.02033c-1.66297,0.3994 -2.87788,2.0769 -2.87788,3.66725v65.92193c0,2.15823 1.79804,3.77763 3.86695,3.77763c2.06818,0 3.77691,-1.70872 3.77691,-3.77763v-62.88065c6.43911,-1.17134 21.71521,-3.1001 30.39825,3.61351c4.14073,3.1916 6.29533,8.03891 6.46453,14.77793c-0.77557,-0.07915 -1.55186,-0.11837 -2.32743,-0.11837c-14.92898,0 -26.9808,12.14114 -26.9808,27.07013c0,14.83966 12.14187,26.9808 26.9808,26.9808zM282.55443,221.52692c-10.70256,0 -19.33622,-8.63365 -19.33622,-19.33622c0,-10.70184 8.63365,-19.42554 19.33622,-19.42554c10.70256,0 19.42627,8.7237 19.42627,19.42554c0,10.70256 -8.7237,19.33622 -19.42627,19.33622zM323.38292,273.06015h-13.09753v3.27438h9.66194v1.23525c0,1.4669 -0.25925,2.83577 -0.77847,4.10587c-0.5185,1.27083 -1.24323,2.37101 -2.17348,3.30125c-0.93097,0.93097 -2.0493,1.66442 -3.35499,2.20108c-1.30641,0.53665 -2.74717,0.80534 -4.32155,0.80534c-3.7573,0 -6.77243,-1.35071 -9.04468,-4.05286c-2.27297,-2.70215 -3.40873,-6.68311 -3.40873,-11.94362c0,-2.64841 0.29483,-4.97439 0.88522,-6.97867c0.59112,-2.00355 1.43204,-3.67669 2.5235,-5.01869c1.09146,-1.342 2.39715,-2.34414 3.91851,-3.00642c1.52064,-0.66156 3.22936,-0.9927 5.12616,-0.9927c1.93239,0 3.69485,0.36673 5.28738,1.10018c1.59253,0.73345 2.97955,1.85178 4.16033,3.35499l2.63025,-1.71744c-1.39573,-2.14734 -3.12261,-3.713 -5.1799,-4.69699c-2.05802,-0.98399 -4.33898,-1.47634 -6.84433,-1.47634c-2.2904,0 -4.41087,0.41175 -6.36068,1.23452c-1.95054,0.8235 -3.63239,2.05802 -5.04628,3.70429c-1.41316,1.64627 -2.52278,3.67669 -3.32812,6.09272c-0.80534,2.4153 -1.20765,5.21549 -1.20765,8.40055c0,3.18506 0.40231,5.98524 1.20765,8.40055c0.80534,2.41603 1.91496,4.42902 3.32812,6.03898c1.41389,1.61069 3.09574,2.82705 5.04628,3.65055c1.94982,0.82277 4.05286,1.23452 6.30695,1.23452c2.2904,0 4.31235,-0.38464 6.06585,-1.15391c1.75375,-0.76976 3.22065,-1.80748 4.40143,-3.1139c1.18151,-1.30569 2.07617,-2.8089 2.68399,-4.5089c0.60855,-1.70001 0.91282,-3.47989 0.91282,-5.34112zM239.98309,253.36011c1.39573,0 2.67528,0.22367 3.83791,0.671c1.16335,0.44733 2.16549,1.07331 3.00642,1.87865c0.84093,0.80534 1.48506,1.78933 1.93239,2.95268c0.44733,1.16263 0.671,2.44217 0.671,3.83791c0,1.18078 -0.13434,2.20979 -0.40303,3.0863c-0.26796,0.87724 -0.61726,1.63755 -1.04644,2.28168c-0.42918,0.64413 -0.93969,1.19894 -1.53008,1.6637c-0.59039,0.46549 -1.20765,0.87724 -1.85178,1.23452c0.78719,0.14379 1.63755,0.45677 2.54965,0.93969c0.91282,0.48292 1.76246,1.11833 2.54965,1.90552c0.78719,0.78719 1.44076,1.72688 1.95926,2.81834c0.51922,1.09146 0.77847,2.31727 0.77847,3.67669c0,3.4356 -1.06459,5.99469 -3.19378,7.67654c-2.12918,1.68185 -4.9831,2.52278 -8.56176,2.52278h-14.06409v-37.14599zM270.81269,253.36011h3.38186v37.14599h-3.38186zM239.98309,269.89324c0.78719,0 1.55695,-0.1968 2.30783,-0.59039c0.75185,-0.39359 1.40517,-0.90362 1.95998,-1.53008c0.55408,-0.62597 1.00141,-1.342 1.34127,-2.14734c0.34058,-0.80462 0.51051,-1.61867 0.51051,-2.44217c0,-1.86049 -0.56352,-3.39929 -1.69129,-4.61638c-1.12704,-1.21637 -2.60339,-1.82491 -4.4283,-1.82491h-9.98436v13.15127zM229.99872,287.23172h11.27262c2.2904,0 4.16905,-0.58168 5.63667,-1.7443c1.4669,-1.16335 2.20035,-2.87208 2.20035,-5.12689c0,-1.10913 -0.25054,-2.11999 -0.75161,-3.03256c-0.50107,-0.91258 -1.15416,-1.68209 -1.95926,-2.30855c-0.80534,-0.62597 -1.71744,-1.10889 -2.73773,-1.44875c-1.01957,-0.34058 -2.03042,-0.51051 -3.03256,-0.51051h-10.62849zM288.83669,298.16594c1.48215,0 2.84666,0.25271 4.09352,0.75814c1.24687,0.50543 2.24029,1.18441 2.98173,2.03841l-1.58382,1.41462c-0.65139,-0.71893 -1.43713,-1.25195 -2.35793,-1.60052c-0.92153,-0.34784 -1.92077,-0.52213 -2.99916,-0.52213c-0.6739,0 -1.33619,0.06754 -1.98758,0.20261c-0.65139,0.13434 -1.22435,0.33695 -1.71816,0.60637c-0.49453,0.26942 -0.89321,0.61726 -1.19603,1.04426c-0.30355,0.427 -0.45532,0.94332 -0.45532,1.54969c0,0.6739 0.19099,1.24687 0.57296,1.71889c0.38198,0.4713 0.87578,0.88668 1.48215,1.24614c0.60709,0.35946 1.2977,0.6739 2.07254,0.94332c0.77484,0.27014 1.56639,0.53956 2.37536,0.80897c0.80825,0.26942 1.5889,0.55045 2.34123,0.84238c0.75306,0.29193 1.42115,0.62888 2.00501,1.01085c0.87578,0.58386 1.59471,1.29116 2.15605,2.12265c0.56207,0.83076 0.84238,1.92004 0.84238,3.26785c0,1.21346 -0.2578,2.2294 -0.77484,3.04927c-0.51632,0.81987 -1.19022,1.47707 -2.02171,1.97088c-0.83076,0.49453 -1.75157,0.84238 -2.76242,1.04499c-1.01085,0.20188 -2.01082,0.30282 -2.99916,0.30282c-0.83076,0 -1.67314,-0.05592 -2.52641,-0.16848c-0.854,-0.11183 -1.67386,-0.28612 -2.4596,-0.52213c-0.78646,-0.23601 -1.5279,-0.55045 -2.22359,-0.94332c-0.69641,-0.39287 -1.30278,-0.8707 -1.81983,-1.43204l1.44875,-1.51628c0.83149,0.854 1.91496,1.49377 3.25115,1.92077c1.33691,0.427 2.71231,0.63977 4.12765,0.63977c2.11176,0 3.74568,-0.39287 4.9025,-1.1786c1.15682,-0.78646 1.73486,-1.85323 1.73486,-3.20104c0,-0.80897 -0.21858,-1.51047 -0.65647,-2.10595c-0.43862,-0.59547 -0.98326,-1.1176 -1.63465,-1.56639c-0.69641,-0.49453 -1.40372,-0.8707 -2.12265,-1.12922c-0.71893,-0.2578 -1.44294,-0.488 -2.17276,-0.69061c-0.73055,-0.20188 -1.47126,-0.43789 -2.22432,-0.70731c-0.75233,-0.26942 -1.51047,-0.66301 -2.2737,-1.17933c-0.76395,-0.51632 -1.39283,-1.13431 -1.88736,-1.85323c-0.49381,-0.71893 -0.74071,-1.61722 -0.74071,-2.69561c0,-0.83076 0.17356,-1.5889 0.52213,-2.2737c0.34784,-0.68552 0.83657,-1.26357 1.46545,-1.73559c0.62888,-0.4713 1.38702,-0.83657 2.27442,-1.09509c0.8874,-0.25804 1.87018,-0.38706 2.94832,-0.38706zM235.00652,298.40122c0.87578,0 1.67895,0.14088 2.40877,0.42119c0.72982,0.28103 1.35942,0.6739 1.88664,1.17933c0.52818,0.50543 0.93267,1.12317 1.21346,1.85323c0.28031,0.72982 0.42119,1.53298 0.42119,2.40877c0,0.74144 -0.08424,1.38702 -0.25271,1.93747c-0.16848,0.55045 -0.38778,1.02756 -0.6572,1.43204c-0.26942,0.40449 -0.58966,0.75233 -0.96002,1.04426c-0.37108,0.29265 -0.75814,0.55045 -1.16263,0.77557c0.49381,0.08932 1.02756,0.28612 1.60052,0.58966c0.57296,0.30282 1.10598,0.7015 1.60052,1.19603c0.49381,0.49381 0.9041,1.08347 1.22944,1.76899c0.32606,0.6848 0.48872,1.45383 0.48872,2.30783c0,2.15605 -0.66809,3.76238 -2.00501,4.81753c-1.33619,1.05588 -3.12769,1.58382 -5.37379,1.58382h-8.82755v-23.31573zM262.74691,298.40122h-2.05511l-8.35625,23.31573h2.4262l1.61722,-4.81826h10.57984l1.65063,4.81826h2.493zM314.25183,321.71695h2.12265v-21.15895h7.00844v-2.15678h-16.23975v2.15678h7.10866zM235.00652,308.77918c0.49381,0 0.97672,-0.12345 1.44875,-0.37108c0.4713,-0.2469 0.88159,-0.56715 1.22944,-0.96002c0.34857,-0.39311 0.62936,-0.84238 0.84238,-1.34781c0.2135,-0.50543 0.32025,-1.01666 0.32025,-1.53298c0,-1.16771 -0.35365,-2.13354 -1.06096,-2.89749c-0.70803,-0.76395 -1.63465,-1.14593 -2.77985,-1.14593h-6.26701v8.25531zM261.66852,301.29944l4.64978,13.57827h-9.29884zM228.73951,319.66184h7.07525c1.43785,0 2.61718,-0.36527 3.53799,-1.09509c0.92081,-0.72982 1.38121,-1.8024 1.38121,-3.21774c0,-0.69641 -0.15686,-1.3311 -0.4713,-1.90334c-0.31444,-0.57296 -0.72474,-1.05588 -1.23016,-1.44875c-0.50543,-0.39359 -1.07766,-0.69641 -1.71816,-0.90991c-0.6405,-0.2135 -1.27446,-0.32025 -1.90334,-0.32025h-6.67149z" data-paper-data="{&quot;isBaseLogoContainer&quot;:true}"></path></g></g></g></svg>