<svg xmlns="http://www.w3.org/2000/svg" viewBox="0 0 500 500" version="1.1" id="svg_null"><g id="root" stroke="none" stroke-width="1" fill="none" fill-rule="evenodd"><rect id="background.accent" fill="#fcda05" x="0" y="0" width="500" height="500"></rect><g id="Group-2" transform="translate(235.000000, 242.000000)"><rect id="Rectangle-44" x="0" y="0" width="200" height="40"></rect><text id="headerWord_2.primary" font-family="Anonymous Pro" font-size="40" font-weight="700" line-spacing="40" letter-spacing="3" fill="#5c3551" data-text-alignment="L" font-style="normal"><tspan x="0" y="32.5">Bast</tspan></text></g><g id="Group" transform="translate(235.000000, 192.000000)"><rect id="Rectangle-44" x="0" y="0" width="200" height="40"></rect><text id="headerWord_1.primary" font-family="Anonymous Pro" font-size="40" font-weight="700" line-spacing="40" letter-spacing="3" fill="#5c3551" data-text-alignment="L" font-style="normal"><tspan x="0" y="28.5">Big</tspan></text></g><path d="M67.698 287.387l144.604 0l0 -104.795l-144.604 0l0 104.795zm106.078 11.338l-67.891 -8.695l68.805 0l-0.914 8.695zm-14.19 11.441l-64.022 -15.03l66.068 6.666l-2.046 8.364zm-13.626 12.44l-60.893 -25.994l65.604 15.4l-4.71 10.594zm-39.81 -151.33l67.729 8.673l-68.64 0l0.912 -8.673zm14.192 -11.442l64.021 15.03l-66.067 -6.666l2.046 -8.364zm13.625 -12.44l60.893 25.994l-65.603 -15.4l4.71 -10.593zm81.033 32.555l-0.121 0l-81.873 -34.949l-6.425 14.23l-7.758 -1.82l-3.07 12.554l-11.668 -1.177l-1.173 11.162l-37.912 0l0 110.081l81.921 34.97l6.426 -14.23l7.757 1.821l3.07 -12.555l11.668 1.177l1.176 -11.183l37.982 0l0 -110.08z" id="shape.primary" fill="#5c3551"></path><g id="Group-3" transform="translate(142.000000, 199.000000)"><rect id="Rectangle-92" x="0" y="1" width="51" height="71"></rect><text id="headerInitial_2.primary" font-family="Anonymous Pro" font-size="60" font-weight="700" letter-spacing="4.5" fill="#5c3551" data-text-alignment="C" font-style="normal"><tspan x="9.1171875" y="55.5">B</tspan></text></g><g id="Group-4" transform="translate(87.000000, 199.000000)"><rect id="Rectangle-92" x="0" y="1" width="51" height="71"></rect><text id="headerInitial_1.primary" font-family="Anonymous Pro" font-size="60" font-weight="700" letter-spacing="4.5" fill="#5c3551" data-text-alignment="C" font-style="normal"><tspan x="9.1171875" y="55.5">B</tspan></text></g></g></svg>