<?xml version="1.0" standalone="yes"?>
<!DOCTYPE svg PUBLIC "-//W3C//DTD SVG 20010904//EN"
 "http://www.w3.org/TR/2001/REC-SVG-20010904/DTD/svg10.dtd">
<svg version="1.0" xmlns="http://www.w3.org/2000/svg"
 width="1280.000000pt" height="960.000000pt" viewBox="500 0 1280.000000 960.000000"
 preserveAspectRatio="xMidYMid meet">
<metadata>
Created by potrace 1.15, written by Peter Selinger 2001-2017
</metadata>
<g transform="translate(0.000000,867.000000) scale(0.200000,-0.100000)"
fill="#000000" stroke="none">
<path d="M3131 8641 c-30 -42 -28 -117 5 -183 l26 -51 -31 -121 c-114 -455
-129 -535 -155 -836 -40 -447 -41 -487 -36 -1785 6 -1516 6 -2301 1 -3822 -3
-889 -1 -1156 8 -1167 7 -8 54 -25 104 -37 132 -32 403 -34 492 -3 35 12 59
26 57 33 -1 7 2 10 8 6 6 -4 25 3 43 14 54 33 161 54 248 48 98 -6 115 -16
123 -67 8 -54 33 -63 156 -58 108 5 144 18 161 60 6 15 19 33 28 38 9 6 11 10
4 10 -7 0 -24 -18 -38 -40 -14 -22 -27 -40 -30 -40 -7 0 36 69 48 77 26 16
252 24 300 10 22 -6 27 -5 21 5 -4 7 4 3 18 -10 15 -14 24 -31 21 -41 -3 -11
4 -21 22 -29 35 -16 178 -15 218 2 38 15 114 66 100 66 -5 0 -24 -11 -43 -25
-19 -14 -35 -25 -37 -25 -8 0 0 8 29 30 36 27 58 30 215 34 l112 3 33 -36 33
-36 -35 30 -36 30 37 -37 c32 -32 44 -37 103 -43 115 -13 217 20 216 69 0 6
-5 4 -11 -4 -9 -13 -10 -13 -6 0 2 8 9 15 15 15 6 0 17 6 24 14 11 12 10 13
-4 8 -25 -9 -22 0 3 14 17 9 20 8 14 -2 -6 -9 -3 -10 10 -6 73 28 180 33 254
11 l23 -7 -4 131 c-2 72 -2 129 1 126 3 -2 8 -75 12 -162 4 -86 10 -165 14
-174 12 -29 73 -41 196 -36 122 4 165 17 184 54 6 12 17 30 24 40 7 11 2 6
-13 -9 -14 -15 -26 -24 -26 -19 0 19 42 45 82 50 57 8 192 8 247 0 24 -4 55
-17 70 -30 14 -12 31 -27 36 -32 6 -4 0 -3 -12 3 -12 6 -25 16 -28 21 -3 5
-16 15 -28 21 -13 6 -8 -2 13 -20 47 -42 117 -61 217 -61 94 0 153 18 153 47
0 27 28 63 57 74 14 5 53 14 87 19 33 5 72 12 86 15 21 5 22 4 5 -4 -19 -9
-18 -10 5 -10 40 -2 101 -21 105 -34 2 -7 6 -25 10 -40 4 -20 16 -33 43 -44
55 -24 279 -21 457 7 77 11 214 30 305 40 203 24 217 27 225 48 22 54 33 3344
15 4322 -20 1090 -52 1814 -96 2225 -37 348 -145 871 -209 1014 l-27 60 -229
1 -228 1 -8 -28 c-5 -15 -8 -59 -7 -98 0 -55 -1 -64 -8 -40 -9 29 -4 118 8
149 5 13 -3 16 -51 16 -54 0 -56 -1 -50 -22 5 -18 4 -20 -4 -8 -27 39 -21 40
282 42 l292 3 28 54 c33 67 35 117 4 162 l-23 34 -2531 3 -2532 2 -20 -29z
m1052 -238 c-106 -2 -193 -7 -193 -11 0 -4 9 -39 20 -77 11 -38 20 -79 20 -90
-1 -17 -49 146 -50 168 -1 21 -19 2 -29 -30 l-10 -38 5 38 5 37 -167 0 -167 0
5 -117 c2 -65 1 -107 -3 -93 -4 14 -7 67 -8 117 l-1 93 -222 3 c-123 1 49 2
382 2 333 0 518 -1 413 -2z m471 -15 c-4 -13 -11 -39 -15 -58 -6 -30 -7 -31
-8 -8 0 15 3 38 9 52 l9 25 -137 4 -137 3 143 2 143 2 -7 -22z m351 -35 c9
-72 9 -95 -4 -158 l-10 -50 6 55 c7 71 7 84 -2 148 l-8 52 -147 0 -147 0 5
-32 c6 -42 -3 -34 -11 10 l-6 32 158 0 158 0 8 -57z m219 35 c-16 -52 -33 -92
-33 -82 -1 6 5 30 13 52 l15 41 -102 4 -102 3 108 2 c108 2 108 2 101 -20z
m213 15 l-168 -3 5 -93 5 -92 -9 80 c-5 44 -11 88 -14 98 -4 16 9 17 172 15
l177 -2 -168 -3z m546 -45 c-3 -29 -10 -64 -14 -78 -8 -25 -3 51 7 98 l4 22
-174 0 -174 0 4 -22 c4 -21 4 -22 -5 -3 -5 11 -10 23 -10 28 -1 4 82 7 184 7
l184 0 -6 -52z m483 -40 c-3 -51 -10 -122 -15 -158 l-9 -65 4 70 c3 39 7 107
10 153 l6 82 -221 0 c-122 0 -221 -2 -221 -4 0 -2 6 -19 14 -37 7 -19 16 -56
19 -84 5 -51 3 -47 -22 55 -7 25 -14 53 -18 63 -5 16 10 17 227 17 l232 0 -6
-92z m302 60 c-6 -18 -17 -49 -24 -68 -7 -19 -15 -48 -17 -65 l-4 -30 -2 33
c0 18 5 45 13 60 7 15 16 42 19 60 l7 32 -131 0 -131 0 6 -53 c12 -91 15 -153
7 -132 -5 11 -11 59 -15 108 l-7 87 145 0 144 0 -10 -32z m332 10 c0 -13 -7
-36 -16 -53 -9 -16 -22 -57 -30 -90 -13 -57 -14 -58 -9 -12 2 26 14 67 25 92
35 77 39 75 -126 75 l-147 0 6 -32 c16 -92 16 -101 2 -53 -29 100 -37 95 140
95 154 0 155 0 155 -22z m492 0 c-5 -19 -7 -20 -10 -5 -3 16 -22 17 -229 17
l-225 0 6 -37 c3 -21 8 -54 12 -75 3 -20 2 -43 -3 -52 -5 -10 -9 0 -10 32 -1
26 -5 68 -8 95 l-7 47 240 0 240 0 -6 -22z m-4286 -39 c-9 -19 -15 -29 -16
-22 0 15 22 64 27 60 2 -2 -3 -19 -11 -38z m41 -11 c-2 -13 -4 -5 -4 17 -1 22
1 32 4 23 2 -10 2 -28 0 -40z m233 -68 l-11 -25 6 25 c2 14 6 48 7 75 l2 50 3
-50 c2 -28 -1 -62 -7 -75z m510 83 c-5 -21 -11 -66 -15 -101 -4 -35 -9 -61
-12 -58 -6 5 15 175 23 188 10 17 12 7 4 -29z m31 5 c-3 -21 -6 -26 -9 -15 -3
17 3 47 11 47 2 0 1 -15 -2 -32z m236 -15 c-3 -10 -5 -2 -5 17 0 19 2 27 5 18
2 -10 2 -26 0 -35z m680 15 c-3 -7 -5 -2 -5 12 0 14 2 19 5 13 2 -7 2 -19 0
-25z m-1872 -18 c-9 -41 -17 -33 -9 9 4 17 9 30 11 27 3 -2 2 -19 -2 -36z
m1243 -65 c0 -22 -3 -19 -9 15 -10 60 -9 108 2 55 4 -22 8 -53 7 -70z m1849
-32 c-2 -27 -3 -5 -3 47 0 52 1 74 3 48 2 -27 2 -69 0 -95z m1510 -30 c-2 -32
-3 -6 -3 57 0 63 1 89 3 58 2 -32 2 -84 0 -115z m-1547 -51 c-11 -16 -11 -16
-6 1 3 10 7 62 8 115 l2 97 3 -98 c2 -60 -1 -104 -7 -115z m-646 159 c-4 -17
-9 -30 -11 -27 -3 2 -2 19 2 36 4 17 9 30 11 27 2 -2 1 -18 -2 -36z m1833 2
c-3 -10 -5 -4 -5 12 0 17 2 24 5 18 2 -7 2 -21 0 -30z m154 -12 c-9 -28 -17
-44 -19 -36 -3 13 23 85 31 85 2 0 -4 -22 -12 -49z m396 -63 c-2 -24 -4 -7 -4
37 0 44 2 63 4 43 2 -21 2 -57 0 -80z m30 15 c-2 -21 -4 -6 -4 32 0 39 2 55 4
38 2 -18 2 -50 0 -70z m-2346 -45 l-11 -33 5 34 c3 18 6 57 7 85 l2 51 3 -52
c2 -28 -1 -66 -6 -85z m1636 85 c-3 -10 -5 -2 -5 17 0 19 2 27 5 18 2 -10 2
-26 0 -35z m30 10 c-3 -10 -5 -4 -5 12 0 17 2 24 5 18 2 -7 2 -21 0 -30z m130
5 c-3 -7 -5 -2 -5 12 0 14 2 19 5 13 2 -7 2 -19 0 -25z m222 -58 c-1 -75 -6
-63 -12 28 -2 34 0 57 5 50 4 -7 7 -42 7 -78z m-2612 58 c-3 -8 -6 -5 -6 6 -1
11 2 17 5 13 3 -3 4 -12 1 -19z m-340 -100 c-2 -24 -4 -7 -4 37 0 44 2 63 4
43 2 -21 2 -57 0 -80z m1120 45 c-2 -16 -4 -5 -4 22 0 28 2 40 4 28 2 -13 2
-35 0 -50z m-1896 -24 c-5 -48 -9 -60 -10 -34 -1 42 9 118 15 112 2 -2 0 -37
-5 -78z m176 29 c-2 -13 -4 -5 -4 17 -1 22 1 32 4 23 2 -10 2 -28 0 -40z m234
-10 c-6 -17 -12 -45 -12 -62 -1 -19 -3 -24 -6 -12 -3 10 1 46 9 79 7 33 14 53
16 43 2 -9 -1 -31 -7 -48z m1516 30 c-3 -7 -5 -2 -5 12 0 14 2 19 5 13 2 -7 2
-19 0 -25z m-2576 -53 c-5 -33 -9 -46 -10 -30 -1 36 11 114 16 100 1 -6 -1
-37 -6 -70z m56 -32 c-2 -21 -4 -4 -4 37 0 41 2 58 4 38 2 -21 2 -55 0 -75z
m4912 67 c0 -10 -3 -8 -9 5 -12 27 -12 43 0 25 5 -8 9 -22 9 -30z m-5104 -10
c-9 -41 -17 -33 -9 9 4 17 9 30 11 27 3 -2 2 -19 -2 -36z m1924 -59 c2 -67 -6
-45 -12 34 -3 42 -2 58 3 40 4 -16 8 -50 9 -74z m-436 39 c4 -30 3 -38 -3 -25
-8 19 -14 83 -6 74 2 -2 6 -24 9 -49z m554 -17 c-2 -16 -4 -5 -4 22 0 28 2 40
4 28 2 -13 2 -35 0 -50z m367 -2 c-4 -28 -9 -50 -11 -47 -3 3 -2 28 2 56 4 28
9 49 12 47 2 -3 1 -28 -3 -56z m403 7 c-3 -8 -6 -5 -6 6 -1 11 2 17 5 13 3 -3
4 -12 1 -19z m1580 -40 c-2 -13 -4 -3 -4 22 0 25 2 35 4 23 2 -13 2 -33 0 -45z
m-3970 20 c-3 -7 -5 -2 -5 12 0 14 2 19 5 13 2 -7 2 -19 0 -25z m530 -75 c-2
-21 -4 -4 -4 37 0 41 2 58 4 38 2 -21 2 -55 0 -75z m320 75 c-3 -7 -5 -2 -5
12 0 14 2 19 5 13 2 -7 2 -19 0 -25z m-1290 -20 c-3 -7 -5 -2 -5 12 0 14 2 19
5 13 2 -7 2 -19 0 -25z m2920 -15 c-3 -10 -5 -2 -5 17 0 19 2 27 5 18 2 -10 2
-26 0 -35z m2220 25 c-3 -8 -6 -5 -6 6 -1 11 2 17 5 13 3 -3 4 -12 1 -19z
m-1460 -35 c-3 -10 -5 -4 -5 12 0 17 2 24 5 18 2 -7 2 -21 0 -30z m-3253 -17
c-3 -21 -8 -35 -11 -32 -2 2 -1 20 3 40 3 21 8 35 11 32 2 -2 1 -20 -3 -40z
m4393 12 c-3 -7 -5 -2 -5 12 0 14 2 19 5 13 2 -7 2 -19 0 -25z m30 0 c-3 -7
-5 -2 -5 12 0 14 2 19 5 13 2 -7 2 -19 0 -25z m317 -48 c4 -24 3 -29 -3 -15
-4 11 -11 36 -15 55 -4 24 -3 29 3 15 4 -11 11 -36 15 -55z m-5184 13 c-11
-17 -11 -17 -6 0 3 10 7 26 7 35 1 15 2 15 6 0 2 -10 -1 -25 -7 -35z m4051
-64 l-11 -34 5 34 c3 18 6 45 6 60 l2 26 4 -26 c2 -15 -1 -42 -6 -60z m-1974
-6 c-2 -16 -4 -3 -4 27 0 30 2 43 4 28 2 -16 2 -40 0 -55z m1030 30 c-3 -10
-5 -2 -5 17 0 19 2 27 5 18 2 -10 2 -26 0 -35z m1450 -5 c-2 -13 -4 -5 -4 17
-1 22 1 32 4 23 2 -10 2 -28 0 -40z m320 15 c-3 -10 -5 -4 -5 12 0 17 2 24 5
18 2 -7 2 -21 0 -30z m-3950 -10 c-3 -10 -5 -4 -5 12 0 17 2 24 5 18 2 -7 2
-21 0 -30z m230 5 c-3 -8 -6 -5 -6 6 -1 11 2 17 5 13 3 -3 4 -12 1 -19z m2292
-63 c-1 -60 -6 -50 -12 23 -2 32 -1 48 4 40 5 -7 8 -35 8 -63z m1388 38 c-3
-10 -5 -4 -5 12 0 17 2 24 5 18 2 -7 2 -21 0 -30z m-3530 -5 c-3 -7 -5 -2 -5
12 0 14 2 19 5 13 2 -7 2 -19 0 -25z m222 -27 c1 -35 -5 -22 -12 24 -5 28 -4
34 3 20 5 -11 9 -31 9 -44z m1320 9 c0 -9 -4 -8 -9 5 -5 11 -9 27 -9 35 0 9 4
8 9 -5 5 -11 9 -27 9 -35z m168 -32 c-2 -18 -4 -6 -4 27 0 33 2 48 4 33 2 -15
2 -42 0 -60z m580 15 c-2 -16 -4 -5 -4 22 0 28 2 40 4 28 2 -13 2 -35 0 -50z
m-1430 15 c-3 -7 -5 -2 -5 12 0 14 2 19 5 13 2 -7 2 -19 0 -25z m3030 10 c-3
-8 -6 -5 -6 6 -1 11 2 17 5 13 3 -3 4 -12 1 -19z m-3520 -65 c-2 -16 -4 -3 -4
27 0 30 2 43 4 28 2 -16 2 -40 0 -55z m220 45 c-3 -7 -5 -2 -5 12 0 14 2 19 5
13 2 -7 2 -19 0 -25z m3120 10 c-3 -8 -6 -5 -6 6 -1 11 2 17 5 13 3 -3 4 -12
1 -19z m-4870 -35 c-3 -10 -5 -2 -5 17 0 19 2 27 5 18 2 -10 2 -26 0 -35z
m4420 10 c-3 -10 -5 -4 -5 12 0 17 2 24 5 18 2 -7 2 -21 0 -30z m260 -30 c-3
-10 -5 -2 -5 17 0 19 2 27 5 18 2 -10 2 -26 0 -35z m-1880 -25 c-2 -13 -4 -3
-4 22 0 25 2 35 4 23 2 -13 2 -33 0 -45z m1110 40 c-3 -8 -6 -5 -6 6 -1 11 2
17 5 13 3 -3 4 -12 1 -19z m-960 -25 c-3 -10 -5 -4 -5 12 0 17 2 24 5 18 2 -7
2 -21 0 -30z m680 -5 c-3 -7 -5 -2 -5 12 0 14 2 19 5 13 2 -7 2 -19 0 -25z
m-940 -10 c-3 -8 -6 -5 -6 6 -1 11 2 17 5 13 3 -3 4 -12 1 -19z m1606 -23 c4
-27 3 -35 -3 -25 -5 8 -10 28 -10 44 0 39 6 30 13 -19z m204 -7 c-2 -13 -4 -5
-4 17 -1 22 1 32 4 23 2 -10 2 -28 0 -40z m-3054 -204 c-4 -132 -10 -221 -11
-199 -5 51 9 448 15 442 2 -3 1 -112 -4 -243z m2094 199 c-3 -10 -5 -4 -5 12
0 17 2 24 5 18 2 -7 2 -21 0 -30z m-2740 -45 c-2 -13 -4 -3 -4 22 0 25 2 35 4
23 2 -13 2 -33 0 -45z m2140 30 c-3 -7 -5 -2 -5 12 0 14 2 19 5 13 2 -7 2 -19
0 -25z m1730 0 c-3 -7 -5 -2 -5 12 0 14 2 19 5 13 2 -7 2 -19 0 -25z m60 0
c-3 -7 -5 -2 -5 12 0 14 2 19 5 13 2 -7 2 -19 0 -25z m170 0 c-3 -7 -5 -2 -5
12 0 14 2 19 5 13 2 -7 2 -19 0 -25z m-4540 -30 c-2 -13 -4 -5 -4 17 -1 22 1
32 4 23 2 -10 2 -28 0 -40z m720 0 c-2 -13 -4 -5 -4 17 -1 22 1 32 4 23 2 -10
2 -28 0 -40z m1200 0 c-2 -13 -4 -5 -4 17 -1 22 1 32 4 23 2 -10 2 -28 0 -40z
m2260 5 c-3 -10 -5 -2 -5 17 0 19 2 27 5 18 2 -10 2 -26 0 -35z m-3870 0 c-3
-10 -5 -4 -5 12 0 17 2 24 5 18 2 -7 2 -21 0 -30z m2300 -10 c-3 -10 -5 -2 -5
17 0 19 2 27 5 18 2 -10 2 -26 0 -35z m-1440 -75 c-2 -24 -4 -7 -4 37 0 44 2
63 4 43 2 -21 2 -57 0 -80z m230 20 c-2 -18 -4 -4 -4 32 0 36 2 50 4 33 2 -18
2 -48 0 -65z m250 60 c-3 -8 -6 -5 -6 6 -1 11 2 17 5 13 3 -3 4 -12 1 -19z
m1520 0 c-3 -8 -6 -5 -6 6 -1 11 2 17 5 13 3 -3 4 -12 1 -19z m270 -30 c-2
-13 -4 -5 -4 17 -1 22 1 32 4 23 2 -10 2 -28 0 -40z m502 -42 c1 -68 -5 -55
-12 24 -3 38 -1 57 3 45 5 -11 9 -42 9 -69z m-4272 37 c-3 -10 -5 -4 -5 12 0
17 2 24 5 18 2 -7 2 -21 0 -30z m4390 -5 c-3 -7 -5 -2 -5 12 0 14 2 19 5 13 2
-7 2 -19 0 -25z m-500 -15 c-3 -10 -5 -4 -5 12 0 17 2 24 5 18 2 -7 2 -21 0
-30z m-3240 -20 c-3 -10 -5 -2 -5 17 0 19 2 27 5 18 2 -10 2 -26 0 -35z m410
10 c-3 -10 -5 -4 -5 12 0 17 2 24 5 18 2 -7 2 -21 0 -30z m3408 -18 c-4 -25
-9 -44 -12 -41 -2 2 -1 25 2 51 4 25 9 44 12 41 2 -2 1 -25 -2 -51z m-2498
-17 c-2 -13 -4 -3 -4 22 0 25 2 35 4 23 2 -13 2 -33 0 -45z m930 -15 c-2 -16
-4 -3 -4 27 0 30 2 43 4 28 2 -16 2 -40 0 -55z m2170 55 c-3 -8 -6 -5 -6 6 -1
11 2 17 5 13 3 -3 4 -12 1 -19z m-2700 -75 c-2 -16 -4 -3 -4 27 0 30 2 43 4
28 2 -16 2 -40 0 -55z m560 20 c-3 -10 -5 -4 -5 12 0 17 2 24 5 18 2 -7 2 -21
0 -30z m2150 -5 c-3 -7 -5 -2 -5 12 0 14 2 19 5 13 2 -7 2 -19 0 -25z m-3340
-25 c-3 -10 -5 -2 -5 17 0 19 2 27 5 18 2 -10 2 -26 0 -35z m60 15 c-3 -8 -6
-5 -6 6 -1 11 2 17 5 13 3 -3 4 -12 1 -19z m-740 -65 c-2 -16 -4 -5 -4 22 0
28 2 40 4 28 2 -13 2 -35 0 -50z m920 45 c-3 -8 -6 -5 -6 6 -1 11 2 17 5 13 3
-3 4 -12 1 -19z m1910 -25 c-3 -10 -5 -2 -5 17 0 19 2 27 5 18 2 -10 2 -26 0
-35z m-2400 15 c-3 -8 -6 -5 -6 6 -1 11 2 17 5 13 3 -3 4 -12 1 -19z m3600
-15 c-3 -10 -5 -4 -5 12 0 17 2 24 5 18 2 -7 2 -21 0 -30z m-4820 -5 c-3 -7
-5 -2 -5 12 0 14 2 19 5 13 2 -7 2 -19 0 -25z m370 -70 c-2 -18 -4 -4 -4 32 0
36 2 50 4 33 2 -18 2 -48 0 -65z m1170 55 c-3 -10 -5 -4 -5 12 0 17 2 24 5 18
2 -7 2 -21 0 -30z m170 -20 c-3 -10 -5 -4 -5 12 0 17 2 24 5 18 2 -7 2 -21 0
-30z m2410 -100 c-2 -27 -3 -5 -3 47 0 52 1 74 3 48 2 -27 2 -69 0 -95z m721
17 c0 -16 -3 -11 -9 15 -4 22 -8 51 -7 65 0 16 3 11 9 -15 4 -22 8 -51 7 -65z
m-3211 68 c-3 -8 -6 -5 -6 6 -1 11 2 17 5 13 3 -3 4 -12 1 -19z m472 -67 c1
-74 -5 -61 -11 24 -3 40 -2 61 3 50 4 -11 8 -44 8 -74z m2078 52 c-3 -10 -5
-4 -5 12 0 17 2 24 5 18 2 -7 2 -21 0 -30z m-1030 -5 c-3 -7 -5 -2 -5 12 0 14
2 19 5 13 2 -7 2 -19 0 -25z m-3080 -25 c-3 -10 -5 -2 -5 17 0 19 2 27 5 18 2
-10 2 -26 0 -35z m1650 -315 c-1 -68 -3 -15 -3 117 0 132 2 187 3 123 2 -64 2
-172 0 -240z m-2040 290 c-2 -13 -4 -5 -4 17 -1 22 1 32 4 23 2 -10 2 -28 0
-40z m1800 -85 c-2 -27 -3 -5 -3 47 0 52 1 74 3 48 2 -27 2 -69 0 -95z m-970
90 c-3 -10 -5 -4 -5 12 0 17 2 24 5 18 2 -7 2 -21 0 -30z m1460 -15 c-2 -13
-4 -5 -4 17 -1 22 1 32 4 23 2 -10 2 -28 0 -40z m-1600 -160 c-2 -35 -3 -7 -3
62 0 69 1 97 3 63 2 -35 2 -91 0 -125z m3630 90 c-2 -18 -4 -4 -4 32 0 36 2
50 4 33 2 -18 2 -48 0 -65z m-3129 -73 c-1 -139 -6 -119 -10 43 -2 62 0 104 4
95 3 -10 6 -72 6 -138z m3319 78 c-2 -16 -4 -3 -4 27 0 30 2 43 4 28 2 -16 2
-40 0 -55z m20 15 c-2 -13 -4 -3 -4 22 0 25 2 35 4 23 2 -13 2 -33 0 -45z
m-2560 -183 c0 -66 -1 -65 -7 25 -4 52 -8 122 -7 155 0 53 1 50 8 -25 4 -47 7
-116 6 -155z m1970 113 c-2 -24 -4 -7 -4 37 0 44 2 63 4 43 2 -21 2 -57 0 -80z
m1230 55 c-3 -10 -5 -2 -5 17 0 19 2 27 5 18 2 -10 2 -26 0 -35z m-4050 -320
c-1 -65 -3 -12 -3 117 0 129 2 182 3 118 2 -65 2 -171 0 -235z m2410 325 c-3
-8 -6 -5 -6 6 -1 11 2 17 5 13 3 -3 4 -12 1 -19z m-1106 -20 c-3 -21 -6 -26
-9 -15 -3 17 3 47 11 47 2 0 1 -15 -2 -32z m-1070 -173 l-11 -40 5 40 c3 22 6
74 7 115 l2 75 3 -75 c2 -41 -1 -93 -6 -115z m3086 108 c-2 -16 -4 -3 -4 27 0
30 2 43 4 28 2 -16 2 -40 0 -55z m-1370 -10 c-2 -16 -4 -3 -4 27 0 30 2 43 4
28 2 -16 2 -40 0 -55z m240 55 c-3 -8 -6 -5 -6 6 -1 11 2 17 5 13 3 -3 4 -12
1 -19z m-2928 -128 l-5 -135 -2 122 c-1 67 1 129 4 138 4 9 7 15 8 13 0 -2 -2
-64 -5 -138z m1068 33 c-2 -21 -4 -4 -4 37 0 41 2 58 4 38 2 -21 2 -55 0 -75z
m3730 60 c-3 -10 -5 -2 -5 17 0 19 2 27 5 18 2 -10 2 -26 0 -35z m-2890 -85
c-2 -24 -4 -5 -4 42 0 47 2 66 4 43 2 -24 2 -62 0 -85z m2040 35 c-2 -16 -4
-3 -4 27 0 30 2 43 4 28 2 -16 2 -40 0 -55z m-3490 -120 c-2 -37 -3 -9 -3 62
0 72 1 102 3 68 2 -34 2 -93 0 -130z m1840 125 c-2 -13 -4 -3 -4 22 0 25 2 35
4 23 2 -13 2 -33 0 -45z m640 0 c-2 -13 -4 -3 -4 22 0 25 2 35 4 23 2 -13 2
-33 0 -45z m-900 -15 c-2 -16 -4 -5 -4 22 0 28 2 40 4 28 2 -13 2 -35 0 -50z
m1398 -32 c-4 -51 -10 -90 -12 -87 -3 3 -2 46 2 96 4 50 9 89 12 86 3 -2 1
-45 -2 -95z m-628 -33 c-2 -24 -4 -5 -4 42 0 47 2 66 4 43 2 -24 2 -62 0 -85z
m2000 40 c-2 -13 -4 -5 -4 17 -1 22 1 32 4 23 2 -10 2 -28 0 -40z m-1883 -240
c-4 -134 -9 -237 -12 -229 -6 17 9 484 15 477 3 -2 2 -114 -3 -248z m-637 180
c-2 -13 -4 -3 -4 22 0 25 2 35 4 23 2 -13 2 -33 0 -45z m1270 -135 c-2 -38 -3
-7 -3 67 0 74 1 105 3 68 2 -38 2 -98 0 -135z m380 -30 c-1 -43 -3 -8 -3 77 0
85 2 120 3 78 2 -43 2 -113 0 -155z m-3390 185 c-3 -7 -5 -2 -5 12 0 14 2 19
5 13 2 -7 2 -19 0 -25z m3510 -435 c-1 -87 -3 -16 -3 157 0 173 2 244 3 158 2
-87 2 -229 0 -315z m760 380 c-2 -16 -4 -5 -4 22 0 28 2 40 4 28 2 -13 2 -35
0 -50z m-5460 -25 c-2 -18 -4 -6 -4 27 0 33 2 48 4 33 2 -15 2 -42 0 -60z
m1698 -206 c-4 -112 -9 -201 -12 -199 -2 3 0 114 4 248 4 134 10 224 11 199 2
-25 1 -136 -3 -248z m-238 106 c-2 -35 -3 -9 -3 57 0 66 1 94 3 63 2 -32 2
-86 0 -120z m1101 -15 c1 -104 6 -231 11 -283 6 -52 10 -138 9 -190 l-1 -95
-8 130 c-20 345 -25 476 -21 548 2 42 5 77 7 77 1 0 3 -84 3 -187z m119 165
c-3 -8 -6 -5 -6 6 -1 11 2 17 5 13 3 -3 4 -12 1 -19z m-1065 -190 c-3 -260 -9
-280 -10 -37 -1 172 2 219 12 219 1 0 0 -82 -2 -182z m625 -10 c-2 -35 -3 -7
-3 62 0 69 1 97 3 63 2 -35 2 -91 0 -125z m690 -71 c-1 -45 -3 -5 -3 88 0 94
2 130 3 82 2 -48 2 -125 0 -170z m150 201 c-3 -7 -5 -2 -5 12 0 14 2 19 5 13
2 -7 2 -19 0 -25z m980 -75 c-2 -21 -4 -4 -4 37 0 41 2 58 4 38 2 -21 2 -55 0
-75z m-730 65 c-3 -7 -5 -2 -5 12 0 14 2 19 5 13 2 -7 2 -19 0 -25z m130 -125
c-2 -32 -3 -8 -3 52 0 61 1 87 3 58 2 -29 2 -78 0 -110z m2010 70 c-2 -16 -4
-3 -4 27 0 30 2 43 4 28 2 -16 2 -40 0 -55z m-670 15 c-2 -13 -4 -5 -4 17 -1
22 1 32 4 23 2 -10 2 -28 0 -40z m-4170 -200 c-1 -46 -3 -9 -3 82 0 91 2 128
3 83 2 -46 2 -120 0 -165z m-640 115 c-2 -21 -4 -4 -4 37 0 41 2 58 4 38 2
-21 2 -55 0 -75z m1110 55 c-2 -13 -4 -5 -4 17 -1 22 1 32 4 23 2 -10 2 -28 0
-40z m1574 -258 l-10 -85 4 85 c3 47 6 137 7 200 l2 115 3 -115 c2 -63 -1
-153 -6 -200z m416 168 c-2 -18 -4 -6 -4 27 0 33 2 48 4 33 2 -15 2 -42 0 -60z
m2390 -20 c-2 -18 -4 -6 -4 27 0 33 2 48 4 33 2 -15 2 -42 0 -60z m-1412 -58
c-4 -67 -9 -119 -12 -116 -3 2 -2 59 2 126 4 66 10 119 12 116 3 -3 2 -59 -2
-126z m-323 -20 c4 -84 3 -113 -2 -75 -8 62 -13 221 -6 214 2 -2 6 -65 8 -139z
m445 108 c-3 -7 -5 -2 -5 12 0 14 2 19 5 13 2 -7 2 -19 0 -25z m610 -105 c-2
-27 -3 -5 -3 47 0 52 1 74 3 48 2 -27 2 -69 0 -95z m-3840 -115 c-1 -46 -3 -9
-3 82 0 91 2 128 3 83 2 -46 2 -120 0 -165z m145 -25 c2 -72 0 -129 -4 -126
-5 2 -7 93 -6 201 2 197 6 172 10 -75z m285 235 c-3 -8 -6 -5 -6 6 -1 11 2 17
5 13 3 -3 4 -12 1 -19z m3180 -40 c-3 -7 -5 -2 -5 12 0 14 2 19 5 13 2 -7 2
-19 0 -25z m-3190 -10 c-3 -7 -5 -2 -5 12 0 14 2 19 5 13 2 -7 2 -19 0 -25z
m-1400 -145 c-2 -32 -3 -6 -3 57 0 63 1 89 3 58 2 -32 2 -84 0 -115z m1480
135 c-3 -7 -5 -2 -5 12 0 14 2 19 5 13 2 -7 2 -19 0 -25z m3380 -25 c-3 -10
-5 -2 -5 17 0 19 2 27 5 18 2 -10 2 -26 0 -35z m-1740 0 c-3 -10 -5 -4 -5 12
0 17 2 24 5 18 2 -7 2 -21 0 -30z m2390 -90 c-2 -21 -4 -4 -4 37 0 41 2 58 4
38 2 -21 2 -55 0 -75z m-920 -180 c-1 -54 -3 -12 -3 92 0 105 2 149 3 98 2
-51 2 -136 0 -190z m-790 115 c-2 -29 -3 -6 -3 52 0 58 1 81 3 53 2 -29 2 -77
0 -105z m-320 95 c-3 -10 -5 -4 -5 12 0 17 2 24 5 18 2 -7 2 -21 0 -30z m730
-385 c-1 -79 -3 -15 -3 142 0 157 2 221 3 143 2 -79 2 -207 0 -285z m-2810
300 c-2 -24 -4 -7 -4 37 0 44 2 63 4 43 2 -21 2 -57 0 -80z m730 80 c-3 -7 -5
-2 -5 12 0 14 2 19 5 13 2 -7 2 -19 0 -25z m824 -54 c-6 -56 -9 -66 -10 -34
-1 46 9 123 15 117 2 -2 0 -39 -5 -83z m-894 54 c-3 -8 -6 -5 -6 6 -1 11 2 17
5 13 3 -3 4 -12 1 -19z m1060 -95 c-2 -21 -4 -4 -4 37 0 41 2 58 4 38 2 -21 2
-55 0 -75z m360 15 c-2 -13 -4 -3 -4 22 0 25 2 35 4 23 2 -13 2 -33 0 -45z
m90 -25 c-3 -10 -5 -2 -5 17 0 19 2 27 5 18 2 -10 2 -26 0 -35z m525 -298 c2
-148 0 -256 -3 -240 -4 17 -6 156 -6 310 0 154 2 262 4 240 1 -22 4 -161 5
-310z m1425 192 c-2 -23 -3 -1 -3 48 0 50 1 68 3 42 2 -26 2 -67 0 -90z
m-3880 46 c-3 -10 -5 -2 -5 17 0 19 2 27 5 18 2 -10 2 -26 0 -35z m1940 -55
c-2 -18 -4 -4 -4 32 0 36 2 50 4 33 2 -18 2 -48 0 -65z m-470 -205 c-1 -54 -3
-10 -3 97 0 107 2 151 3 98 2 -54 2 -142 0 -195z m-3120 -375 c-1 -123 -2 -25
-2 217 0 242 1 342 2 223 2 -119 2 -317 0 -440z m1000 185 c-1 -87 -3 -16 -3
157 0 173 2 244 3 158 2 -87 2 -229 0 -315z m1960 125 c-1 -62 -3 -14 -3 107
0 121 2 172 3 113 2 -59 2 -158 0 -220z m-1470 265 c-3 -10 -5 -4 -5 12 0 17
2 24 5 18 2 -7 2 -21 0 -30z m3230 -120 c-2 -32 -3 -8 -3 52 0 61 1 87 3 58 2
-29 2 -78 0 -110z m-2390 100 c-3 -10 -5 -4 -5 12 0 17 2 24 5 18 2 -7 2 -21
0 -30z m-200 -185 c-1 -40 -3 -8 -3 72 0 80 2 112 3 73 2 -40 2 -106 0 -145z
m-1001 -220 c-4 -233 -11 -454 -16 -493 -7 -71 -5 137 5 345 2 52 5 202 5 333
0 130 3 237 7 237 3 0 3 -190 -1 -422z m3721 375 c-3 -10 -5 -2 -5 17 0 19 2
27 5 18 2 -10 2 -26 0 -35z m-2580 5 c-3 -7 -5 -2 -5 12 0 14 2 19 5 13 2 -7
2 -19 0 -25z m1520 -125 c-2 -32 -3 -8 -3 52 0 61 1 87 3 58 2 -29 2 -78 0
-110z m30 0 c-2 -32 -3 -8 -3 52 0 61 1 87 3 58 2 -29 2 -78 0 -110z m-240
-65 c-2 -35 -3 -7 -3 62 0 69 1 97 3 63 2 -35 2 -91 0 -125z m1960 30 c-2 -29
-3 -6 -3 52 0 58 1 81 3 53 2 -29 2 -77 0 -105z m-3440 -50 c-2 -24 -4 -5 -4
42 0 47 2 66 4 43 2 -24 2 -62 0 -85z m2484 -488 l-10 -95 4 100 c3 55 6 215
7 355 l3 255 2 -260 c2 -143 -1 -303 -6 -355z m266 568 c-3 -8 -6 -5 -6 6 -1
11 2 17 5 13 3 -3 4 -12 1 -19z m-145 -283 c-7 -172 -9 -200 -10 -110 -2 121
10 397 15 360 2 -11 -1 -123 -5 -250z m-2435 143 c-3 -8 -6 -5 -6 6 -1 11 2
17 5 13 3 -3 4 -12 1 -19z m3280 -150 c-2 -35 -3 -9 -3 57 0 66 1 94 3 63 2
-32 2 -86 0 -120z m-3200 -373 l-1 -150 -6 195 c-4 107 -7 263 -7 345 l1 150
6 -195 c4 -107 7 -262 7 -345z m760 443 c-2 -18 -4 -4 -4 32 0 36 2 50 4 33 2
-18 2 -48 0 -65z m1100 -120 c-1 -40 -3 -8 -3 72 0 80 2 112 3 73 2 -40 2
-106 0 -145z m-646 -3 c-7 -170 -8 -182 -9 -80 -2 111 7 289 14 282 1 -1 -1
-92 -5 -202z m-594 58 c-2 -16 -4 -3 -4 27 0 30 2 43 4 28 2 -16 2 -40 0 -55z
m-690 -25 c-2 -18 -4 -6 -4 27 0 33 2 48 4 33 2 -15 2 -42 0 -60z m1520 -51
c-2 -23 -3 -1 -3 48 0 50 1 68 3 42 2 -26 2 -67 0 -90z m30 -9 c-2 -24 -4 -5
-4 42 0 47 2 66 4 43 2 -24 2 -62 0 -85z m-726 -133 c-6 -173 -8 -194 -9 -100
-2 119 9 364 15 335 2 -8 -1 -114 -6 -235z m-2494 193 c-3 -7 -5 -2 -5 12 0
14 2 19 5 13 2 -7 2 -19 0 -25z m2361 -323 c0 -115 -2 -203 -4 -195 -1 8 -4
128 -6 265 -2 138 0 225 3 195 4 -30 7 -149 7 -265z m-2321 243 c-2 -13 -4 -5
-4 17 -1 22 1 32 4 23 2 -10 2 -28 0 -40z m1470 15 c-3 -10 -5 -4 -5 12 0 17
2 24 5 18 2 -7 2 -21 0 -30z m-30 -200 c-1 -43 -3 -8 -3 77 0 85 2 120 3 78 2
-43 2 -113 0 -155z m-1480 195 c-3 -8 -6 -5 -6 6 -1 11 2 17 5 13 3 -3 4 -12
1 -19z m3490 -280 c-1 -57 -3 -11 -3 102 0 113 2 159 3 103 2 -57 2 -149 0
-205z m-3090 29 c-1 -45 -3 -5 -3 88 0 94 2 130 3 82 2 -48 2 -125 0 -170z
m1110 81 c-2 -29 -3 -8 -3 47 0 55 1 79 3 53 2 -26 2 -71 0 -100z m2100 25
c-2 -21 -4 -4 -4 37 0 41 2 58 4 38 2 -21 2 -55 0 -75z m1340 -80 c-2 -37 -3
-9 -3 62 0 72 1 102 3 68 2 -34 2 -93 0 -130z m-4910 -180 c-1 -65 -3 -14 -3
112 0 127 2 180 3 118 2 -62 2 -165 0 -230z m4040 145 c-2 -24 -4 -5 -4 42 0
47 2 66 4 43 2 -24 2 -62 0 -85z m-2370 -65 c-2 -27 -3 -5 -3 47 0 52 1 74 3
48 2 -27 2 -69 0 -95z m1890 -265 c-1 -73 -3 -14 -3 132 0 146 2 205 3 133 2
-73 2 -193 0 -265z m-660 290 c-2 -18 -4 -4 -4 32 0 36 2 50 4 33 2 -18 2 -48
0 -65z m-1470 -130 c-2 -29 -3 -6 -3 52 0 58 1 81 3 53 2 -29 2 -77 0 -105z
m30 0 c-2 -29 -3 -8 -3 47 0 55 1 79 3 53 2 -26 2 -71 0 -100z m-1490 15 c-2
-21 -4 -4 -4 37 0 41 2 58 4 38 2 -21 2 -55 0 -75z m830 15 c-2 -18 -4 -4 -4
32 0 36 2 50 4 33 2 -18 2 -48 0 -65z m3230 -80 c-2 -35 -3 -9 -3 57 0 66 1
94 3 63 2 -32 2 -86 0 -120z m-110 40 c-2 -18 -4 -4 -4 32 0 36 2 50 4 33 2
-18 2 -48 0 -65z m-1470 35 c-3 -10 -5 -2 -5 17 0 19 2 27 5 18 2 -10 2 -26 0
-35z m2470 -205 c-1 -46 -3 -9 -3 82 0 91 2 128 3 83 2 -46 2 -120 0 -165z
m-2880 85 c-2 -27 -3 -5 -3 47 0 52 1 74 3 48 2 -27 2 -69 0 -95z m1420 70
c-2 -16 -4 -5 -4 22 0 28 2 40 4 28 2 -13 2 -35 0 -50z m-1000 -35 c-2 -13 -4
-5 -4 17 -1 22 1 32 4 23 2 -10 2 -28 0 -40z m1720 0 c-2 -13 -4 -5 -4 17 -1
22 1 32 4 23 2 -10 2 -28 0 -40z m-3710 5 c-3 -10 -5 -4 -5 12 0 17 2 24 5 18
2 -7 2 -21 0 -30z m1210 -145 c-2 -35 -3 -9 -3 57 0 66 1 94 3 63 2 -32 2 -86
0 -120z m30 -65 c-1 -43 -3 -8 -3 77 0 85 2 120 3 78 2 -43 2 -113 0 -155z
m620 -120 c-1 -65 -3 -12 -3 117 0 129 2 182 3 118 2 -65 2 -171 0 -235z
m1600 204 c-2 -23 -3 -1 -3 48 0 50 1 68 3 42 2 -26 2 -67 0 -90z m-3170 -259
c-1 -73 -3 -16 -3 127 0 143 2 203 3 133 2 -70 2 -187 0 -260z m673 265 l-5
-118 -3 104 c-2 92 1 131 10 131 2 0 1 -53 -2 -117z m2037 25 c-2 -18 -4 -4
-4 32 0 36 2 50 4 33 2 -18 2 -48 0 -65z m-3500 20 c-2 -13 -4 -3 -4 22 0 25
2 35 4 23 2 -13 2 -33 0 -45z m1490 25 c-3 -10 -5 -4 -5 12 0 17 2 24 5 18 2
-7 2 -21 0 -30z m550 -10 c-3 -10 -5 -4 -5 12 0 17 2 24 5 18 2 -7 2 -21 0
-30z m-1550 -80 c-2 -21 -4 -4 -4 37 0 41 2 58 4 38 2 -21 2 -55 0 -75z m-460
65 c-3 -8 -6 -5 -6 6 -1 11 2 17 5 13 3 -3 4 -12 1 -19z m1460 -60 c-2 -13 -4
-3 -4 22 0 25 2 35 4 23 2 -13 2 -33 0 -45z m990 20 c-3 -7 -5 -2 -5 12 0 14
2 19 5 13 2 -7 2 -19 0 -25z m1570 -225 c-1 -49 -3 -9 -3 87 0 96 2 136 3 88
2 -49 2 -127 0 -175z m-4010 185 c-2 -13 -4 -3 -4 22 0 25 2 35 4 23 2 -13 2
-33 0 -45z m360 10 c-2 -13 -4 -5 -4 17 -1 22 1 32 4 23 2 -10 2 -28 0 -40z
m1691 -643 c0 -214 -1 -385 -3 -380 -2 6 -5 251 -7 545 -2 294 -1 465 3 380 3
-85 7 -330 7 -545z m-2081 578 c-2 -21 -4 -6 -4 32 0 39 2 55 4 38 2 -18 2
-50 0 -70z m810 -210 c-1 -54 -3 -10 -3 97 0 107 2 151 3 98 2 -54 2 -142 0
-195z m2680 210 c-3 -10 -5 -2 -5 17 0 19 2 27 5 18 2 -10 2 -26 0 -35z
m-3460 -10 c-3 -10 -5 -4 -5 12 0 17 2 24 5 18 2 -7 2 -21 0 -30z m3550 -250
c-2 -38 -3 -7 -3 67 0 74 1 105 3 68 2 -38 2 -98 0 -135z m1370 -155 c-1 -68
-3 -15 -3 117 0 132 2 187 3 123 2 -64 2 -172 0 -240z m-3240 195 c-2 -21 -4
-4 -4 37 0 41 2 58 4 38 2 -21 2 -55 0 -75z m-240 5 c-2 -18 -4 -6 -4 27 0 33
2 48 4 33 2 -15 2 -42 0 -60z m-30 5 c-2 -16 -4 -5 -4 22 0 28 2 40 4 28 2
-13 2 -35 0 -50z m-340 25 c-3 -8 -6 -5 -6 6 -1 11 2 17 5 13 3 -3 4 -12 1
-19z m640 -45 c-2 -16 -4 -5 -4 22 0 28 2 40 4 28 2 -13 2 -35 0 -50z m300
-40 c-3 -10 -5 -4 -5 12 0 17 2 24 5 18 2 -7 2 -21 0 -30z m1988 -161 c-4 -84
-9 -151 -12 -149 -2 3 -1 83 4 178 4 96 9 163 11 149 2 -14 1 -94 -3 -178z
m-2318 111 c-3 -10 -5 -4 -5 12 0 17 2 24 5 18 2 -7 2 -21 0 -30z m30 0 c-3
-10 -5 -4 -5 12 0 17 2 24 5 18 2 -7 2 -21 0 -30z m-30 -75 c-2 -13 -4 -5 -4
17 -1 22 1 32 4 23 2 -10 2 -28 0 -40z m30 -150 c-2 -35 -3 -9 -3 57 0 66 1
94 3 63 2 -32 2 -86 0 -120z m-640 60 c-2 -18 -4 -6 -4 27 0 33 2 48 4 33 2
-15 2 -42 0 -60z m-30 30 c-3 -8 -6 -5 -6 6 -1 11 2 17 5 13 3 -3 4 -12 1 -19z
m980 -385 c-1 -71 -3 -13 -3 127 0 140 2 198 3 128 2 -71 2 -185 0 -255z
m-980 -100 c-1 -81 -3 -17 -3 142 0 160 2 226 3 148 2 -78 2 -208 0 -290z
m2510 360 c-3 -10 -5 -4 -5 12 0 17 2 24 5 18 2 -7 2 -21 0 -30z m-2480 -425
c-1 -84 -3 -16 -3 152 0 168 2 236 3 153 2 -84 2 -222 0 -305z m2480 310 c-2
-13 -4 -5 -4 17 -1 22 1 32 4 23 2 -10 2 -28 0 -40z m-1830 -361 c-1 -67 -3
-9 -3 128 0 138 2 192 3 122 2 -71 2 -183 0 -250z m3210 -495 c-1 -158 -2 -26
-2 293 0 319 1 448 2 287 2 -161 2 -422 0 -580z m-2590 781 c-3 -10 -5 -2 -5
17 0 19 2 27 5 18 2 -10 2 -26 0 -35z m1210 -10 c-3 -10 -5 -2 -5 17 0 19 2
27 5 18 2 -10 2 -26 0 -35z m-1490 -620 c-1 -76 -3 -14 -3 137 0 151 2 213 3
138 2 -76 2 -200 0 -275z m-30 -25 c-1 -79 -3 -15 -3 142 0 157 2 221 3 143 2
-79 2 -207 0 -285z m820 335 c-2 -16 -4 -3 -4 27 0 30 2 43 4 28 2 -16 2 -40
0 -55z m-1160 -40 c-2 -21 -4 -6 -4 32 0 39 2 55 4 38 2 -18 2 -50 0 -70z
m-650 -5 c-3 -8 -6 -5 -6 6 -1 11 2 17 5 13 3 -3 4 -12 1 -19z m1770 -35 c-3
-10 -5 -4 -5 12 0 17 2 24 5 18 2 -7 2 -21 0 -30z m-2380 -165 c-2 -29 -3 -8
-3 47 0 55 1 79 3 53 2 -26 2 -71 0 -100z m1270 -380 c-1 -95 -3 -18 -3 172 0
190 2 267 3 173 2 -95 2 -251 0 -345z m30 490 c-3 -8 -6 -5 -6 6 -1 11 2 17 5
13 3 -3 4 -12 1 -19z m1080 -330 c-1 -68 -3 -15 -3 117 0 132 2 187 3 123 2
-64 2 -172 0 -240z m-1078 -230 c-3 -111 -5 -54 -5 182 0 258 1 299 5 163 4
-100 3 -255 0 -345z m1108 -115 c-1 -120 -2 -24 -2 212 0 237 1 335 2 218 2
-116 2 -310 0 -430z m-800 -426 c-1 -138 -2 -25 -2 253 0 278 1 391 2 252 2
-138 2 -366 0 -505z m-990 531 c-1 -40 -3 -8 -3 72 0 80 2 112 3 73 2 -40 2
-106 0 -145z m1020 -560 c-1 -134 -2 -27 -2 237 0 264 1 373 2 243 2 -130 2
-346 0 -480z m-1640 559 c-2 -23 -3 -1 -3 48 0 50 1 68 3 42 2 -26 2 -67 0
-90z m650 1 c-2 -24 -4 -7 -4 37 0 44 2 63 4 43 2 -21 2 -57 0 -80z m1723 -10
l-5 -113 -3 99 c-2 88 1 126 10 126 2 0 1 -51 -2 -112z m707 -210 c-2 -24 -4
-5 -4 42 0 47 2 66 4 43 2 -24 2 -62 0 -85z m-3080 80 c-3 -7 -5 -2 -5 12 0
14 2 19 5 13 2 -7 2 -19 0 -25z m2370 -646 c-1 -114 -2 -20 -2 208 0 228 1
322 2 207 2 -114 2 -300 0 -415z m-1090 401 c-2 -32 -3 -8 -3 52 0 61 1 87 3
58 2 -29 2 -78 0 -110z m-1280 -60 c-2 -32 -3 -8 -3 52 0 61 1 87 3 58 2 -29
2 -78 0 -110z m620 45 c-2 -13 -4 -5 -4 17 -1 22 1 32 4 23 2 -10 2 -28 0 -40z
m30 -60 c-2 -24 -4 -7 -4 37 0 44 2 63 4 43 2 -21 2 -57 0 -80z m660 -70 c-2
-29 -3 -8 -3 47 0 55 1 79 3 53 2 -26 2 -71 0 -100z m-1010 -65 c-2 -38 -3 -7
-3 67 0 74 1 105 3 68 2 -38 2 -98 0 -135z m30 64 c-2 -23 -3 -1 -3 48 0 50 1
68 3 42 2 -26 2 -67 0 -90z m2070 -144 c-1 -54 -3 -12 -3 92 0 105 2 149 3 98
2 -51 2 -136 0 -190z m2100 -706 c-1 -177 -2 -32 -2 323 0 355 1 500 2 322 2
-177 2 -467 0 -645z m-3220 806 c-2 -21 -4 -6 -4 32 0 39 2 55 4 38 2 -18 2
-50 0 -70z m-650 -285 c-1 -62 -3 -14 -3 107 0 121 2 172 3 113 2 -59 2 -158
0 -220z m-300 245 c-3 -10 -5 -4 -5 12 0 17 2 24 5 18 2 -7 2 -21 0 -30z m330
-261 c-1 -53 -3 -7 -3 103 0 110 2 154 3 97 2 -57 2 -147 0 -200z m2830 121
c-2 -27 -3 -5 -3 47 0 52 1 74 3 48 2 -27 2 -69 0 -95z m-2170 70 c-3 -10 -5
-2 -5 17 0 19 2 27 5 18 2 -10 2 -26 0 -35z m2120 -70 c-3 -10 -5 -2 -5 17 0
19 2 27 5 18 2 -10 2 -26 0 -35z m-3150 -250 c-1 -54 -3 -12 -3 92 0 105 2
149 3 98 2 -51 2 -136 0 -190z m30 0 c-1 -54 -3 -12 -3 92 0 105 2 149 3 98 2
-51 2 -136 0 -190z m1000 200 c-3 -10 -5 -4 -5 12 0 17 2 24 5 18 2 -7 2 -21
0 -30z m1770 -80 c-2 -21 -4 -4 -4 37 0 41 2 58 4 38 2 -21 2 -55 0 -75z
m-1440 -641 c-1 -130 -2 -23 -2 238 0 261 1 368 2 237 2 -130 2 -344 0 -475z
m750 455 c-1 -45 -3 -5 -3 88 0 94 2 130 3 82 2 -48 2 -125 0 -170z m-1110
-190 c-1 -73 -3 -10 -3 138 0 149 2 208 3 132 2 -76 2 -198 0 -270z m1850 371
c-3 -7 -5 -2 -5 12 0 14 2 19 5 13 2 -7 2 -19 0 -25z m350 -70 c-2 -18 -4 -4
-4 32 0 36 2 50 4 33 2 -18 2 -48 0 -65z m-400 -20 c-3 -7 -5 -2 -5 12 0 14 2
19 5 13 2 -7 2 -19 0 -25z m-1770 -130 c-2 -29 -3 -6 -3 52 0 58 1 81 3 53 2
-29 2 -77 0 -105z m300 85 c-3 -10 -5 -2 -5 17 0 19 2 27 5 18 2 -10 2 -26 0
-35z m740 -1081 c-1 -202 -2 -36 -2 368 0 404 1 570 2 367 2 -202 2 -532 0
-735z m780 1046 c-3 -8 -6 -5 -6 6 -1 11 2 17 5 13 3 -3 4 -12 1 -19z m-1520
-601 c-1 -111 -2 -17 -2 208 0 226 1 316 2 202 2 -115 2 -299 0 -410z m1820
-169 c-1 -145 -2 -29 -2 257 0 286 1 404 2 263 2 -141 2 -375 0 -520z m-2770
-155 c-1 -170 -2 -31 -2 307 0 338 1 477 2 308 2 -170 2 -446 0 -615z m2810
870 c-3 -10 -5 -2 -5 17 0 19 2 27 5 18 2 -10 2 -26 0 -35z m-340 -256 c-1
-45 -3 -5 -3 88 0 94 2 130 3 82 2 -48 2 -125 0 -170z m340 -230 c-1 -84 -3
-12 -3 158 0 171 2 239 3 152 2 -87 2 -227 0 -310z m-2160 386 c-3 -10 -5 -2
-5 17 0 19 2 27 5 18 2 -10 2 -26 0 -35z m-680 -165 c-1 -40 -3 -10 -3 67 0
77 1 110 3 73 2 -37 2 -100 0 -140z m1750 -765 c-1 -180 -2 -35 -2 322 0 358
1 505 2 328 2 -177 2 -469 0 -650z m-1070 785 c-2 -18 -4 -4 -4 32 0 36 2 50
4 33 2 -18 2 -48 0 -65z m1778 -1525 c-4 -24 -10 -43 -15 -43 -6 0 -5 11 0 26
6 15 11 321 12 782 l3 757 3 -740 c1 -407 0 -759 -3 -782z m-532 1420 c-20 -8
-15 -26 5 -18 14 5 15 4 5 -6 -10 -10 -16 -10 -24 -2 -13 13 -4 33 14 32 9 0
9 -2 0 -6z m574 -697 c-6 -623 -5 -665 11 -659 13 4 12 2 -3 -10 -11 -8 -21
-14 -22 -13 -5 4 11 1346 15 1346 3 0 2 -299 -1 -664z m-3170 512 c-3 -7 -5
-2 -5 12 0 14 2 19 5 13 2 -7 2 -19 0 -25z m1320 10 c-3 -8 -6 -5 -6 6 -1 11
2 17 5 13 3 -3 4 -12 1 -19z m370 -456 c-1 -53 -3 -7 -3 103 0 110 2 154 3 97
2 -57 2 -147 0 -200z m-1020 -74 c-1 -68 -3 -13 -3 122 0 135 2 190 3 123 2
-68 2 -178 0 -245z m990 80 c-1 -40 -3 -8 -3 72 0 80 2 112 3 73 2 -40 2 -106
0 -145z m2860 -366 c-1 -103 -2 -18 -2 188 0 206 1 291 2 187 2 -103 2 -271 0
-375z m-4520 451 c-2 -21 -4 -6 -4 32 0 39 2 55 4 38 2 -18 2 -50 0 -70z
m3503 -378 l-5 -460 -3 447 c-2 370 2 500 12 476 0 -2 -1 -210 -4 -463z
m-1513 328 c-2 -21 -4 -4 -4 37 0 41 2 58 4 38 2 -21 2 -55 0 -75z m-1670 -20
c-3 -10 -5 -2 -5 17 0 19 2 27 5 18 2 -10 2 -26 0 -35z m30 0 c-3 -10 -5 -2
-5 17 0 19 2 27 5 18 2 -10 2 -26 0 -35z m0 -75 c-2 -13 -4 -5 -4 17 -1 22 1
32 4 23 2 -10 2 -28 0 -40z m0 -110 c-2 -18 -4 -6 -4 27 0 33 2 48 4 33 2 -15
2 -42 0 -60z m-30 40 c-3 -8 -6 -5 -6 6 -1 11 2 17 5 13 3 -3 4 -12 1 -19z
m1360 -45 c-3 -10 -5 -4 -5 12 0 17 2 24 5 18 2 -7 2 -21 0 -30z m-1640 -10
c-3 -10 -5 -4 -5 12 0 17 2 24 5 18 2 -7 2 -21 0 -30z m1610 -10 c-3 -10 -5
-2 -5 17 0 19 2 27 5 18 2 -10 2 -26 0 -35z m396 -662 c11 -14 10 -14 -5 -2
-17 12 -18 40 -16 355 l3 341 2 -339 c3 -251 7 -343 16 -355z m-1352 616 c-10
-9 -11 -8 -5 6 3 10 9 15 12 12 3 -3 0 -11 -7 -18z m986 -74 c-2 -16 -4 -5 -4
22 0 28 2 40 4 28 2 -13 2 -35 0 -50z m-980 -50 c-2 -21 -4 -4 -4 37 0 41 2
58 4 38 2 -21 2 -55 0 -75z m2760 0 c-2 -21 -4 -4 -4 37 0 41 2 58 4 38 2 -21
2 -55 0 -75z m-3460 -305 c-1 -73 -3 -14 -3 132 0 146 2 205 3 133 2 -73 2
-193 0 -265z m1990 215 c-2 -21 -4 -6 -4 32 0 39 2 55 4 38 2 -18 2 -50 0 -70z
m400 25 c-3 -7 -5 -2 -5 12 0 14 2 19 5 13 2 -7 2 -19 0 -25z m30 -30 c-2 -13
-4 -3 -4 22 0 25 2 35 4 23 2 -13 2 -33 0 -45z m-1740 -155 c-2 -37 -3 -9 -3
62 0 72 1 102 3 68 2 -34 2 -93 0 -130z m2793 2 c0 -69 -3 -125 -7 -125 -5 0
-7 56 -5 125 2 69 5 125 8 125 2 0 4 -56 4 -125z m-2763 -37 c-2 -29 -3 -6 -3
52 0 58 1 81 3 53 2 -29 2 -77 0 -105z m-670 -170 c-1 -46 -3 -9 -3 82 0 91 2
128 3 83 2 -46 2 -120 0 -165z m3250 106 c-3 -3 -12 -4 -19 -1 -8 3 -5 6 6 6
11 1 17 -2 13 -5z m1215 -36 c-6 -6 -7 0 -4 19 5 21 7 23 10 9 2 -10 0 -22 -6
-28z m-2614 15 c-15 -2 -42 -2 -60 0 -18 2 -6 4 27 4 33 0 48 -2 33 -4z m719
-10 c-20 -2 -52 -2 -70 0 -17 2 0 4 38 4 39 0 53 -2 32 -4z m910 -75 c20 -22
10 -24 -11 -2 -9 8 -15 27 -15 42 l2 27 4 -25 c3 -14 12 -33 20 -42z m956 55
c-7 -2 -21 -2 -30 0 -10 3 -4 5 12 5 17 0 24 -2 18 -5z m-4585 -10 c-15 -2
-42 -2 -60 0 -18 2 -6 4 27 4 33 0 48 -2 33 -4z m669 0 c-20 -2 -52 -2 -70 0
-17 2 0 4 38 4 39 0 53 -2 32 -4z m666 0 c-18 -2 -48 -2 -65 0 -18 2 -4 4 32
4 36 0 50 -2 33 -4z m3180 0 c-13 -2 -35 -2 -50 0 -16 2 -5 4 22 4 28 0 40 -2
28 -4z m-4714 -26 c-16 -13 -79 -48 -79 -44 0 7 63 47 74 47 5 0 7 -1 5 -3z
m2686 -47 c-3 -5 -12 -10 -18 -10 -7 0 -6 4 3 10 19 12 23 12 15 0z m1433 3
c-10 -2 -28 -2 -40 0 -13 2 -5 4 17 4 22 1 32 -1 23 -4z m-4228 -12 c0 -5 -7
-12 -16 -15 -14 -5 -15 -4 -4 9 14 17 20 19 20 6z m-297 -48 c-7 -2 -21 -2
-30 0 -10 3 -4 5 12 5 17 0 24 -2 18 -5z"/>
<path d="M4680 716 c0 -2 8 -10 18 -17 15 -13 16 -12 3 4 -13 16 -21 21 -21
13z"/>
</g>
</svg>
